<mxfile modified="2023-02-23T20:26:08.957Z" host="app.diagrams.net" agent="5.0 (Windows NT 10.0; Win64; x64) AppleWebKit/537.36 (KHTML, like Gecko) Chrome/110.0.0.0 Safari/537.36 Edg/110.0.1587.46" etag="7gpf9-_RU5nGrCEUCkZn" version="20.8.23" type="github">
  <diagram id="WI9T0HZ2pTsCkuznbFz-" name="Page-1">
    <mxGraphModel dx="1673" dy="955" grid="1" gridSize="10" guides="1" tooltips="1" connect="1" arrows="1" fold="1" page="1" pageScale="1" pageWidth="827" pageHeight="1169" math="0" shadow="0">
      <root>
        <mxCell id="0" />
        <mxCell id="1" parent="0" />
        <mxCell id="mHWheTlbwNphfSnGaATk-37" value="" style="rounded=1;whiteSpace=wrap;html=1;" vertex="1" parent="1">
          <mxGeometry x="40" y="40" width="580" height="570" as="geometry" />
        </mxCell>
        <mxCell id="mHWheTlbwNphfSnGaATk-78" style="edgeStyle=orthogonalEdgeStyle;rounded=0;orthogonalLoop=1;jettySize=auto;html=1;exitX=1;exitY=0.5;exitDx=0;exitDy=0;entryX=0;entryY=0.75;entryDx=0;entryDy=0;" edge="1" parent="1" source="mHWheTlbwNphfSnGaATk-62" target="mHWheTlbwNphfSnGaATk-36">
          <mxGeometry relative="1" as="geometry" />
        </mxCell>
        <mxCell id="mHWheTlbwNphfSnGaATk-79" style="edgeStyle=orthogonalEdgeStyle;rounded=0;orthogonalLoop=1;jettySize=auto;html=1;exitX=1;exitY=0.5;exitDx=0;exitDy=0;entryX=0;entryY=0.5;entryDx=0;entryDy=0;" edge="1" parent="1" source="mHWheTlbwNphfSnGaATk-62" target="mHWheTlbwNphfSnGaATk-38">
          <mxGeometry relative="1" as="geometry" />
        </mxCell>
        <mxCell id="mHWheTlbwNphfSnGaATk-80" style="edgeStyle=orthogonalEdgeStyle;rounded=0;orthogonalLoop=1;jettySize=auto;html=1;exitX=1;exitY=0.5;exitDx=0;exitDy=0;entryX=0;entryY=0.5;entryDx=0;entryDy=0;" edge="1" parent="1" source="mHWheTlbwNphfSnGaATk-62" target="mHWheTlbwNphfSnGaATk-39">
          <mxGeometry relative="1" as="geometry" />
        </mxCell>
        <mxCell id="mHWheTlbwNphfSnGaATk-81" style="edgeStyle=orthogonalEdgeStyle;rounded=0;orthogonalLoop=1;jettySize=auto;html=1;exitX=1;exitY=0.5;exitDx=0;exitDy=0;entryX=0;entryY=0.5;entryDx=0;entryDy=0;" edge="1" parent="1" source="mHWheTlbwNphfSnGaATk-62" target="mHWheTlbwNphfSnGaATk-40">
          <mxGeometry relative="1" as="geometry" />
        </mxCell>
        <mxCell id="mHWheTlbwNphfSnGaATk-62" value="" style="rounded=1;whiteSpace=wrap;html=1;" vertex="1" parent="1">
          <mxGeometry x="70" y="74" width="370" height="316" as="geometry" />
        </mxCell>
        <mxCell id="eWjkR0wsdmifyLcniZH0-6" value="Azure App&lt;br&gt;Insights" style="aspect=fixed;html=1;perimeter=none;align=center;shadow=0;dashed=0;image;fontSize=12;image=img/lib/mscae/Application_Insights.svg;labelBackgroundColor=none;" parent="1" vertex="1">
          <mxGeometry x="98" y="435" width="39" height="60" as="geometry" />
        </mxCell>
        <mxCell id="mHWheTlbwNphfSnGaATk-2" value="Azure Kubernetes Service&#xa;" style="shape=image;verticalLabelPosition=bottom;labelBackgroundColor=#ffffff;verticalAlign=top;aspect=fixed;imageAspect=0;image=data:image/svg+xml,PHN2ZyB4bWxuczpkYz0iaHR0cDovL3B1cmwub3JnL2RjL2VsZW1lbnRzLzEuMS8iIHhtbG5zOmNjPSJodHRwOi8vY3JlYXRpdmVjb21tb25zLm9yZy9ucyMiIHhtbG5zOnJkZj0iaHR0cDovL3d3dy53My5vcmcvMTk5OS8wMi8yMi1yZGYtc3ludGF4LW5zIyIgeG1sbnM6c3ZnPSJodHRwOi8vd3d3LnczLm9yZy8yMDAwL3N2ZyIgeG1sbnM9Imh0dHA6Ly93d3cudzMub3JnLzIwMDAvc3ZnIiB4bWxuczpzb2RpcG9kaT0iaHR0cDovL3NvZGlwb2RpLnNvdXJjZWZvcmdlLm5ldC9EVEQvc29kaXBvZGktMC5kdGQiIHhtbG5zOmlua3NjYXBlPSJodHRwOi8vd3d3Lmlua3NjYXBlLm9yZy9uYW1lc3BhY2VzL2lua3NjYXBlIiB2ZXJzaW9uPSIxLjEiIGlkPSJzdmc1NjAxOCIgaW5rc2NhcGU6dmVyc2lvbj0iMC45Mi4zICgyNDA1NTQ2LCAyMDE4LTAzLTExKSIgc29kaXBvZGk6ZG9jbmFtZT0iYXp1cmVfY29udGFpbmVyLnN2ZyIgeD0iMHB4IiB5PSIwcHgiIHZpZXdCb3g9IjAgMCA2NS41MiA0OC40OSIgeG1sOnNwYWNlPSJwcmVzZXJ2ZSIgd2lkdGg9IjY1LjUxOTk5NyIgaGVpZ2h0PSI0OC40OTAwMDIiPjxtZXRhZGF0YSBpZD0ibWV0YWRhdGE1NTM4Ij48cmRmOlJERj48Y2M6V29yayByZGY6YWJvdXQ9IiI+PGRjOmZvcm1hdD5pbWFnZS9zdmcreG1sPC9kYzpmb3JtYXQ+PGRjOnR5cGUgcmRmOnJlc291cmNlPSJodHRwOi8vcHVybC5vcmcvZGMvZGNtaXR5cGUvU3RpbGxJbWFnZSIvPjxkYzp0aXRsZS8+PC9jYzpXb3JrPjwvcmRmOlJERj48L21ldGFkYXRhPjxkZWZzIGlkPSJkZWZzNTUzNiIvPiYjeGE7PGZpbHRlciBpZD0iZmlsdGVyXzIiPiYjeGE7CTxmZUdhdXNzaWFuQmx1ciBpZD0iZmVHYXVzc2lhbkJsdXI1NTgzOSIgc3RkRGV2aWF0aW9uPSIyIi8+JiN4YTs8L2ZpbHRlcj4mI3hhOzxzb2RpcG9kaTpuYW1lZHZpZXcgYm9yZGVyY29sb3I9IiM2NjY2NjYiIGJvcmRlcm9wYWNpdHk9IjEiIGZpdC1tYXJnaW4tYm90dG9tPSIwIiBmaXQtbWFyZ2luLWxlZnQ9IjAiIGZpdC1tYXJnaW4tcmlnaHQ9IjAiIGZpdC1tYXJnaW4tdG9wPSIwIiBncmlkdG9sZXJhbmNlPSIxMCIgZ3VpZGV0b2xlcmFuY2U9IjEwIiBpZD0ibmFtZWR2aWV3NTYwMjAiIGlua3NjYXBlOmN1cnJlbnQtbGF5ZXI9InN2ZzU2MDE4IiBpbmtzY2FwZTpjeD0iLTMuNDYzNzEzOSIgaW5rc2NhcGU6Y3k9IjIwLjQ1NjkyNyIgaW5rc2NhcGU6cGFnZW9wYWNpdHk9IjAiIGlua3NjYXBlOnBhZ2VzaGFkb3c9IjIiIGlua3NjYXBlOndpbmRvdy1oZWlnaHQ9IjEwMTciIGlua3NjYXBlOndpbmRvdy1tYXhpbWl6ZWQ9IjEiIGlua3NjYXBlOndpbmRvdy13aWR0aD0iMTkyMCIgaW5rc2NhcGU6d2luZG93LXg9Ii04IiBpbmtzY2FwZTp3aW5kb3cteT0iLTgiIGlua3NjYXBlOnpvb209IjguOTExNjU1NyIgb2JqZWN0dG9sZXJhbmNlPSIxMCIgcGFnZWNvbG9yPSIjZmZmZmZmIiBzaG93Z3JpZD0iZmFsc2UiPiYjeGE7CTwvc29kaXBvZGk6bmFtZWR2aWV3PiYjeGE7JiN4YTs8cGF0aCBpZD0icGF0aDU1ODUyIiBpbmtzY2FwZTpjb25uZWN0b3ItY3VydmF0dXJlPSIwIiBzdHlsZT0iZmlsbDojODA0OTk4IiBkPSJNIDMwLjAxLDEyLjMyIDE5LjkyLDE2LjI1IFYgMCBsIDEwLjA5LDMuNTQgeiIvPiYjeGE7JiN4YTs8cGF0aCBpZD0icGF0aDU1ODYwIiBpbmtzY2FwZTpjb25uZWN0b3ItY3VydmF0dXJlPSIwIiBzdHlsZT0iZmlsbDojODA0OTk4IiBkPSJtIDEwLjg4LDIuNzUgdiAxMC42MSBsIDcuNDcsMi44OSBWIDAuMTMgWiBtIDAuNzksOS44MyAtMC40LC0wLjEzIFYgMy42NyBsIDAuNCwtMC4xMyAwLjM5LC0wLjE0IDAuMzksLTAuMTMgdiA5LjU3IGwgLTAuMzksLTAuMTMgeiBtIDEuOTYsMC41MiAtMC41MiwtMC4xMyBWIDMuMTQgbCAwLjUyLC0wLjEzIDAuNTMsLTAuMTMgMC41MiwtMC4xMyB2IDEwLjc0IGwgLTAuNTIsLTAuMTMgeiBtIDIuMzYsMC43OSAtMC42NSwtMC4yNiBWIDIuNDkgbCAwLjY1LC0wLjEzIDAuNjYsLTAuMjcgMC43OCwtMC4yNiB2IDEyLjQ1IGwgLTAuNzgsLTAuMjYgeiIvPiYjeGE7JiN4YTs8cGF0aCBpZD0icGF0aDU1ODY4IiBpbmtzY2FwZTpjb25uZWN0b3ItY3VydmF0dXJlPSIwIiBzdHlsZT0iZmlsbDojODA0OTk4IiBkPSJNIDUzLjQ3LDEyLjMyIDQzLjM4LDE2LjI1IFYgMCBsIDEwLjA5LDMuNTQgeiIvPiYjeGE7JiN4YTs8cGF0aCBpZD0icGF0aDU1ODc2IiBpbmtzY2FwZTpjb25uZWN0b3ItY3VydmF0dXJlPSIwIiBzdHlsZT0iZmlsbDojODA0OTk4IiBkPSJtIDM0LjMzLDIuNzUgdiAxMC42MSBsIDcuNDcsMi44OSBWIDAuMTMgWiBtIDAuNzksOS44MyAtMC40LC0wLjEzIFYgMy42NyBMIDM1LjEyLDMuNTQgMzUuNTEsMy40IDM1LjksMy4yNyB2IDkuNTcgbCAtMC4zOSwtMC4xMyB6IG0gMS45NiwwLjUyIC0wLjUyLC0wLjEzIFYgMy4xNCBsIDAuNTIsLTAuMTMgMC41MywtMC4xMyAwLjUyLC0wLjEzIHYgMTAuNzQgbCAtMC41MiwtMC4xMyB6IG0gMi4zNiwwLjc5IC0wLjY1LC0wLjI2IFYgMi40OSBMIDM5LjQ0LDIuMzYgNDAuMSwyLjA5IDQwLjg4LDEuODMgViAxNC4yOCBMIDQwLjEsMTQuMDIgWiIvPiYjeGE7JiN4YTs8cGF0aCBpZD0icGF0aDU1ODg0IiBpbmtzY2FwZTpjb25uZWN0b3ItY3VydmF0dXJlPSIwIiBzdHlsZT0iZmlsbDojODA0OTk4IiBkPSJNIDMwLjAxLDQ0LjU2IDE5LjkyLDQ4LjQ5IFYgMzIuMjQgbCAxMC4wOSwzLjU0IHoiLz4mI3hhOyYjeGE7PHBhdGggaWQ9InBhdGg1NTg5MiIgaW5rc2NhcGU6Y29ubmVjdG9yLWN1cnZhdHVyZT0iMCIgc3R5bGU9ImZpbGw6IzgwNDk5OCIgZD0iTSAxMC44OCwzNC45OSBWIDQ1LjYgbCA3LjQ3LDIuODkgViAzMi4zNyBaIG0gMC43OSw5LjgzIC0wLjQsLTAuMTMgdiAtOC43OCBsIDAuNCwtMC4xMyAwLjM5LC0wLjE0IDAuMzksLTAuMTMgdiA5LjU3IGwgLTAuMzksLTAuMTMgeiBtIDEuOTYsMC41MiAtMC41MiwtMC4xMyB2IC05LjgzIGwgMC41MiwtMC4xMyAwLjUzLC0wLjEzIDAuNTIsLTAuMTMgViA0NS43MyBMIDE0LjE2LDQ1LjYgWiBtIDIuMzYsMC43OSAtMC42NSwtMC4yNiBWIDM0LjczIGwgMC42NSwtMC4xMyAwLjY2LC0wLjI3IDAuNzgsLTAuMjYgdiAxMi40NSBsIC0wLjc4LC0wLjI2IHoiLz4mI3hhOyYjeGE7PHBhdGggaWQ9InBhdGg1NTkwMCIgaW5rc2NhcGU6Y29ubmVjdG9yLWN1cnZhdHVyZT0iMCIgc3R5bGU9ImZpbGw6IzgwNDk5OCIgZD0iTSA1My40Nyw0NC41NiA0My4zOCw0OC40OSBWIDMyLjI0IGwgMTAuMDksMy41NCB6Ii8+JiN4YTsmI3hhOzxwYXRoIGlkPSJwYXRoNTU5MDgiIGlua3NjYXBlOmNvbm5lY3Rvci1jdXJ2YXR1cmU9IjAiIHN0eWxlPSJmaWxsOiM4MDQ5OTgiIGQ9Ik0gMzQuMzMsMzQuOTkgViA0NS42IGwgNy40NywyLjg5IFYgMzIuMzcgWiBtIDAuNzksOS44MyAtMC40LC0wLjEzIHYgLTguNzggbCAwLjQsLTAuMTMgMC4zOSwtMC4xNCAwLjM5LC0wLjEzIHYgOS41NyBsIC0wLjM5LC0wLjEzIHogbSAxLjk2LDAuNTIgLTAuNTIsLTAuMTMgdiAtOS44MyBsIDAuNTIsLTAuMTMgMC41MywtMC4xMyAwLjUyLC0wLjEzIFYgNDUuNzMgTCAzNy42MSw0NS42IFogbSAyLjM2LDAuNzkgLTAuNjUsLTAuMjYgViAzNC43MyBsIDAuNjUsLTAuMTMgMC42NiwtMC4yNyAwLjc4LC0wLjI2IFYgNDYuNTIgTCA0MC4xLDQ2LjI2IFoiLz4mI3hhOyYjeGE7PHBhdGggaWQ9InBhdGg1NTkxNiIgaW5rc2NhcGU6Y29ubmVjdG9yLWN1cnZhdHVyZT0iMCIgc3R5bGU9ImZpbGw6IzgwNDk5OCIgZD0ibSA0Mi40NiwyOC40NCAtOS45NiwzLjggViAxNi4xMiBsIDkuOTYsMy41NCB6Ii8+JiN4YTsmI3hhOzxwYXRoIGlkPSJwYXRoNTU5MjQiIGlua3NjYXBlOmNvbm5lY3Rvci1jdXJ2YXR1cmU9IjAiIHN0eWxlPSJmaWxsOiM4MDQ5OTgiIGQ9Im0gMjMuMzMsMTguNzQgdiAxMC42MSBsIDcuNDcsMi44OSBWIDE2LjEyIFogbSAwLjc5LDkuODMgLTAuNCwtMC4xMyB2IC04Ljc4IGwgMC40LC0wLjEzIDAuMzksLTAuMTQgMC4zOSwtMC4xMyB2IDkuNTcgTCAyNC41MSwyOC43IFogbSAxLjk2LDAuNjUgLTAuNTIsLTAuMTMgdiAtOS44MyBsIDAuNTIsLTAuMTMgMC41MywtMC4xMyAwLjUyLC0wLjEzIHYgMTAuNzUgbCAtMC41MiwtMC4xNCB6IG0gMi4zNiwwLjc5IC0wLjY1LC0wLjI2IFYgMTguNjEgbCAwLjY1LC0wLjEzIDAuNjYsLTAuMjcgMC43OCwtMC4yNiBWIDMwLjQgTCAyOS4xLDMwLjE0IFoiLz4mI3hhOyYjeGE7PHBhdGggaWQ9InBhdGg1NTkzMiIgaW5rc2NhcGU6Y29ubmVjdG9yLWN1cnZhdHVyZT0iMCIgc3R5bGU9ImZpbGw6IzgwNDk5OCIgZD0ibSAxOS4xMywyOC40NCAtOS45NiwzLjggViAxNi4xMiBsIDkuOTYsMy41NCB6Ii8+JiN4YTsmI3hhOzxwYXRoIGlkPSJwYXRoNTU5NDAiIGlua3NjYXBlOmNvbm5lY3Rvci1jdXJ2YXR1cmU9IjAiIHN0eWxlPSJmaWxsOiM4MDQ5OTgiIGQ9Im0gMCwxOC43NCB2IDEwLjYxIGwgNy40NywyLjg5IFYgMTYuMTIgWiBtIDAuNzksOS44MyAtMC40LC0wLjEzIHYgLTguNzggbCAwLjQsLTAuMTMgMC4zOSwtMC4xNCAwLjM5LC0wLjEzIHYgOS41NyBMIDEuMTgsMjguNyBaIE0gMi43NSwyOS4yMiAyLjIzLDI5LjA5IFYgMTkuMjYgTCAyLjc1LDE5LjEzIDMuMjgsMTkgMy44LDE4Ljg3IFYgMjkuNjIgTCAzLjI4LDI5LjQ4IFogTSA1LjExLDMwLjAxIDQuNDYsMjkuNzUgViAxOC42MSBMIDUuMTEsMTguNDggNS43NywxOC4yMSA2LjU1LDE3Ljk1IFYgMzAuNCBMIDUuNzcsMzAuMTQgWiIvPiYjeGE7JiN4YTs8cGF0aCBpZD0icGF0aDU1OTQ4IiBpbmtzY2FwZTpjb25uZWN0b3ItY3VydmF0dXJlPSIwIiBzdHlsZT0iZmlsbDojODA0OTk4IiBkPSJtIDY1LjUyLDI4LjQ0IC05Ljk2LDMuOCBWIDE2LjEyIGwgOS45NiwzLjU0IHoiLz4mI3hhOyYjeGE7JiN4YTsmI3hhOyYjeGE7JiN4YTsmI3hhOyYjeGE7JiN4YTsmI3hhOyYjeGE7JiN4YTsmI3hhOyYjeGE7JiN4YTsmI3hhOzxwYXRoIGlkPSJwYXRoNTYwMTIiIGlua3NjYXBlOmNvbm5lY3Rvci1jdXJ2YXR1cmU9IjAiIHN0eWxlPSJmaWxsOiM4MDQ5OTgiIGQ9Im0gNDYuMzksMTguNzQgdiAxMC42MSBsIDcuNDcsMi44OSBWIDE2LjEyIFogbSAwLjc5LDkuODMgLTAuNCwtMC4xMyB2IC04Ljc4IGwgMC40LC0wLjEzIDAuMzksLTAuMTQgMC4zOSwtMC4xMyB2IDkuNTcgTCA0Ny41NywyOC43IFogbSAxLjk2LDAuNjUgLTAuNTIsLTAuMTMgdiAtOS44MyBsIDAuNTIsLTAuMTMgMC41MywtMC4xMyAwLjUyLC0wLjEzIHYgMTAuNzUgbCAtMC41MiwtMC4xNCB6IG0gMi4zNiwwLjc5IC0wLjY1LC0wLjI2IFYgMTguNjEgbCAwLjY1LC0wLjEzIDAuNjYsLTAuMjcgMC43OCwtMC4yNiBWIDMwLjQgbCAtMC43OCwtMC4yNiB6Ii8+JiN4YTs8L3N2Zz4=;" vertex="1" parent="1">
          <mxGeometry x="122" y="81" width="66" height="48" as="geometry" />
        </mxCell>
        <mxCell id="mHWheTlbwNphfSnGaATk-36" value="eCom" style="shape=image;verticalLabelPosition=bottom;labelBackgroundColor=#ffffff;verticalAlign=top;aspect=fixed;imageAspect=0;image=data:image/svg+xml,PHN2ZyB4bWxuczpjYz0iaHR0cDovL2NyZWF0aXZlY29tbW9ucy5vcmcvbnMjIiB4bWxuczpkYz0iaHR0cDovL3B1cmwub3JnL2RjL2VsZW1lbnRzLzEuMS8iIHhtbG5zOmlua3NjYXBlPSJodHRwOi8vd3d3Lmlua3NjYXBlLm9yZy9uYW1lc3BhY2VzL2lua3NjYXBlIiB4bWxuczpyZGY9Imh0dHA6Ly93d3cudzMub3JnLzE5OTkvMDIvMjItcmRmLXN5bnRheC1ucyMiIHhtbG5zOnNvZGlwb2RpPSJodHRwOi8vc29kaXBvZGkuc291cmNlZm9yZ2UubmV0L0RURC9zb2RpcG9kaS0wLmR0ZCIgeG1sbnM6c3ZnPSJodHRwOi8vd3d3LnczLm9yZy8yMDAwL3N2ZyIgeG1sbnM9Imh0dHA6Ly93d3cudzMub3JnLzIwMDAvc3ZnIiB4bWxuczp4bGluaz0iaHR0cDovL3d3dy53My5vcmcvMTk5OS94bGluayIgdmVyc2lvbj0iMS4xIiBpZD0ic3ZnNzY2MjIiIGlua3NjYXBlOnZlcnNpb249IjAuOTIuMyAoMjQwNTU0NiwgMjAxOC0wMy0xMSkiIHNvZGlwb2RpOmRvY25hbWU9ImRhdGFfY29ubmVjdGlvbnMuc3ZnIiB4PSIwcHgiIHk9IjBweCIgdmlld0JveD0iMCAwIDE4LjE2IDI0LjA0IiBzdHlsZT0iZW5hYmxlLWJhY2tncm91bmQ6bmV3IDAgMCAxOC4xNiAyNC4wNDsiIHhtbDpzcGFjZT0icHJlc2VydmUiPiYjeGE7PHNvZGlwb2RpOm5hbWVkdmlldyBib3JkZXJjb2xvcj0iIzY2NjY2NiIgYm9yZGVyb3BhY2l0eT0iMSIgZml0LW1hcmdpbi1ib3R0b209IjAiIGZpdC1tYXJnaW4tbGVmdD0iMCIgZml0LW1hcmdpbi1yaWdodD0iMCIgZml0LW1hcmdpbi10b3A9IjAiIGdyaWR0b2xlcmFuY2U9IjEwIiBndWlkZXRvbGVyYW5jZT0iMTAiIGlkPSJuYW1lZHZpZXc3NjYyNCIgaW5rc2NhcGU6Y3VycmVudC1sYXllcj0ic3ZnNzY2MjIiIGlua3NjYXBlOmN4PSIxMy42MDI3NzEiIGlua3NjYXBlOmN5PSIxMi40OTI5OTMiIGlua3NjYXBlOnBhZ2VvcGFjaXR5PSIwIiBpbmtzY2FwZTpwYWdlc2hhZG93PSIyIiBpbmtzY2FwZTp3aW5kb3ctaGVpZ2h0PSIxMDE3IiBpbmtzY2FwZTp3aW5kb3ctbWF4aW1pemVkPSIxIiBpbmtzY2FwZTp3aW5kb3ctd2lkdGg9IjE5MjAiIGlua3NjYXBlOndpbmRvdy14PSItOCIgaW5rc2NhcGU6d2luZG93LXk9Ii04IiBpbmtzY2FwZTp6b29tPSIxOS4xMjI1MTEiIG9iamVjdHRvbGVyYW5jZT0iMTAiIHBhZ2Vjb2xvcj0iI2ZmZmZmZiIgc2hvd2dyaWQ9ImZhbHNlIj4mI3hhOwk8L3NvZGlwb2RpOm5hbWVkdmlldz4mI3hhOzxnIGlkPSJnNzY2MjAiIHRyYW5zZm9ybT0idHJhbnNsYXRlKDAsLTAuMDAxODYzOCkiPiYjeGE7CTx0aXRsZSBpZD0idGl0bGU3NjU3MCI+UGFnZS0xPC90aXRsZT4mI3hhOwk8ZyBpZD0iZ3JvdXA0NTY5LTEiPiYjeGE7CQk8dGl0bGUgaWQ9InRpdGxlNzY1NzIiPkRhdGEgQ29ubmVjdGlvbnM8L3RpdGxlPiYjeGE7CQk8ZyBpZD0ic2hhcGU0NTcwLTIiPiYjeGE7CQkJPHRpdGxlIGlkPSJ0aXRsZTc2NTc0Ij5TaGVldC40NTcwPC90aXRsZT4mI3hhOwkJCTxwYXRoIGlkPSJwYXRoNzY1NzYiIGlua3NjYXBlOmNvbm5lY3Rvci1jdXJ2YXR1cmU9IjAiIHN0eWxlPSJmaWxsOiMwMEJDRjI7IiBkPSJNMCwzLjMyYzAsMTcuNDUsMCwxNy40NSwwLDE3LjQ1ICAgICBjMCwxLjgsNC4xMywzLjI3LDkuMTgsMy4yN2MwLTIwLjcyLDAtMjAuNzIsMC0yMC43MkwwLDMuMzJ6Ii8+JiN4YTsJCTwvZz4mI3hhOwkJPGcgaWQ9InNoYXBlNDU3MS00IiB0cmFuc2Zvcm09InRyYW5zbGF0ZSg4Ljk4NDU3KSI+JiN4YTsJCQk8dGl0bGUgaWQ9InRpdGxlNzY1NzkiPlNoZWV0LjQ1NzE8L3RpdGxlPiYjeGE7CQkJPHBhdGggaWQ9InBhdGg3NjU4MSIgaW5rc2NhcGU6Y29ubmVjdG9yLWN1cnZhdHVyZT0iMCIgc3R5bGU9ImZpbGw6IzI5QzdGNDsiIGQ9Ik0wLDI0LjA0YzAuMTIsMCwwLjEyLDAsMC4xMiwwICAgICBjNS4wMSwwLDkuMDYtMS40Nyw5LjA2LTMuMjdjMC0xNy40NSwwLTE3LjQ1LDAtMTcuNDVDMCwzLjMyLDAsMy4zMiwwLDMuMzJWMjQuMDR6Ii8+JiN4YTsJCTwvZz4mI3hhOwkJPGcgaWQ9InNoYXBlNDU3Mi02IiB0cmFuc2Zvcm09InRyYW5zbGF0ZSgwLC0xNy4zOTgyKSI+JiN4YTsJCQk8dGl0bGUgaWQ9InRpdGxlNzY1ODQiPlNoZWV0LjQ1NzI8L3RpdGxlPiYjeGE7CQkJPHBhdGggaWQ9InBhdGg3NjU4NiIgaW5rc2NhcGU6Y29ubmVjdG9yLWN1cnZhdHVyZT0iMCIgc3R5bGU9ImZpbGw6I0ZGRkZGRjsiIGQ9Ik0wLDIwLjcyYzAtMS44Myw0LjA4LTMuMzIsOS4wOC0zLjMyICAgICBjNS4wMiwwLDkuMDgsMS40OSw5LjA4LDMuMzJjMCwxLjg1LTQuMDYsMy4zMi05LjA4LDMuMzJDNC4wOCwyNC4wNCwwLDIyLjU3LDAsMjAuNzJ6Ii8+JiN4YTsJCTwvZz4mI3hhOwkJPGcgaWQ9InNoYXBlNDU3My04IiB0cmFuc2Zvcm09InRyYW5zbGF0ZSgxLjk1MzE3LC0xOC43NjY2KSI+JiN4YTsJCQk8dGl0bGUgaWQ9InRpdGxlNzY1ODkiPlNoZWV0LjQ1NzM8L3RpdGxlPiYjeGE7CQkJPHBhdGggaWQ9InBhdGg3NjU5MSIgaW5rc2NhcGU6Y29ubmVjdG9yLWN1cnZhdHVyZT0iMCIgc3R5bGU9ImZpbGw6Izg1QjM1MTsiIGQ9Ik0wLDIxLjg5YzAtMS4xOCwzLjItMi4xNSw3LjEzLTIuMTUgICAgIGMzLjk0LDAsNy4xMywwLjk3LDcuMTMsMi4xNWMwLDEuMi0zLjE5LDIuMTUtNy4xMywyLjE1QzMuMiwyNC4wNCwwLDIzLjA5LDAsMjEuODl6Ii8+JiN4YTsJCTwvZz4mI3hhOwkJPGcgaWQ9InNoYXBlNDU3NC0xMCIgdHJhbnNmb3JtPSJ0cmFuc2xhdGUoMS45NTMxNywtMTkuNTQ4NikiPiYjeGE7CQkJPHRpdGxlIGlkPSJ0aXRsZTc2NTk0Ij5TaGVldC40NTc0PC90aXRsZT4mI3hhOwkJCTxwYXRoIGlkPSJwYXRoNzY1OTYiIGlua3NjYXBlOmNvbm5lY3Rvci1jdXJ2YXR1cmU9IjAiIHN0eWxlPSJmaWxsOiNCQUM4NEE7IiBkPSJNMTIuNzYsMjQuMDRjMC45Mi0wLjM5LDEuNS0wLjgxLDEuNS0xLjMxICAgICBjMC0xLjIzLTMuMi0yLjItNy4xMy0yLjJTMCwyMS41LDAsMjIuNzNjMCwwLjUsMC41OSwwLjkyLDEuNTEsMS4zMWMxLjMxLTAuNSwzLjMxLTAuODUsNS42Mi0wLjg1ICAgICBDOS40MSwyMy4xOSwxMS40NSwyMy41NCwxMi43NiwyNC4wNHoiLz4mI3hhOwkJPC9nPiYjeGE7CQk8ZyBpZD0ic2hhcGU0NTc1LTEyIiB0cmFuc2Zvcm09InRyYW5zbGF0ZSgyLjUzOTEyLC02LjA2MDA2KSI+JiN4YTsJCQk8dGl0bGUgaWQ9InRpdGxlNzY1OTkiPlNoZWV0LjQ1NzU8L3RpdGxlPiYjeGE7CQkJPHBhdGggaWQ9InBhdGg3NjYwMSIgaW5rc2NhcGU6Y29ubmVjdG9yLWN1cnZhdHVyZT0iMCIgc3R5bGU9ImZpbGw6I0ZGRkZGRjsiIGQ9Ik0xMi4zNSwyMy40MmMtMC41LDAuNDMtMS4xMiwwLjYyLTEuOTcsMC42MiAgICAgYy0yLjgyLDAtMi44MiwwLTIuODIsMGMwLTcuNDIsMC03LjQyLDAtNy40MmMyLjY3LDAsMi42NywwLDIuNjcsMGMwLjg1LDAsMS40NiwwLjEyLDEuOTMsMC40N2MwLjQzLDAuMjcsMC42MiwwLjcsMC42MiwxLjI1ICAgICBjMCwwLjQzLTAuMTYsMC43OC0wLjQ2LDEuMTRjLTAuMjcsMC4yMy0wLjU5LDAuNDItMC45NywwLjU1bDAsMGMwLjU0LDAuMDcsMC45NywwLjI2LDEuMjcsMC42MmMwLjMyLDAuMzIsMC40NywwLjcxLDAuNDcsMS4xNyAgICAgQzEzLjA5LDIyLjQ4LDEyLjgyLDIzLjAzLDEyLjM1LDIzLjQyeiBNNS40NywyMi45OWMtMC43LDAuNzEtMS42NywxLjA1LTIuODMsMS4wNWMtMi42NCwwLTIuNjQsMC0yLjY0LDBjMC03LjQyLDAtNy40MiwwLTcuNDIgICAgIGMyLjY0LDAsMi42NCwwLDIuNjQsMGMyLjYsMCwzLjksMS4xNywzLjksMy42QzYuNTQsMjEuMzksNi4yLDIyLjI5LDUuNDcsMjIuOTl6Ii8+JiN4YTsJCTwvZz4mI3hhOwkJPGcgaWQ9InNoYXBlNDU3Ni0xNCIgdHJhbnNmb3JtPSJ0cmFuc2xhdGUoNC4xMDE2NSwtNy40Mjg0NikiPiYjeGE7CQkJPHRpdGxlIGlkPSJ0aXRsZTc2NjA0Ij5TaGVldC40NTc2PC90aXRsZT4mI3hhOwkJCTxwYXRoIGlkPSJwYXRoNzY2MDYiIGlua3NjYXBlOmNvbm5lY3Rvci1jdXJ2YXR1cmU9IjAiIHN0eWxlPSJmaWxsOiMwMEJDRjI7IiBkPSJNMC44NywxOS4zNWMtMC44NywwLTAuODcsMC0wLjg3LDAgICAgIGMwLDQuNjksMCw0LjY5LDAsNC42OWMwLjg3LDAsMC44NywwLDAuODcsMGMwLjc4LDAsMS4zOS0wLjIzLDEuOC0wLjY0YzAuNDYtMC40MywwLjY1LTEuMDIsMC42NS0xLjc1YzAtMC43LTAuMTktMS4yNS0wLjYxLTEuNjcgICAgIEMyLjI2LDE5LjYsMS42NSwxOS4zNSwwLjg3LDE5LjM1eiIvPiYjeGE7CQk8L2c+JiN4YTsJCTxnIGlkPSJzaGFwZTQ1NzctMTYiIHRyYW5zZm9ybT0idHJhbnNsYXRlKDExLjcxOSwtMTAuMzYwNykiPiYjeGE7CQkJPHRpdGxlIGlkPSJ0aXRsZTc2NjA5Ij5TaGVldC40NTc3PC90aXRsZT4mI3hhOwkJCTxwYXRoIGlkPSJwYXRoNzY2MTEiIGlua3NjYXBlOmNvbm5lY3Rvci1jdXJ2YXR1cmU9IjAiIHN0eWxlPSJmaWxsOiMyOUM3RjQ7IiBkPSJNMS42MiwyMy44MWMwLjIxLTAuMTksMC4zMy0wLjQzLDAuMzMtMC42OSAgICAgYzAtMC41NS0wLjQxLTAuODMtMS4yOC0wLjgzYy0wLjY3LDAtMC42NywwLTAuNjcsMGMwLDEuNzUsMCwxLjc1LDAsMS43NWMwLjc5LDAsMC43OSwwLDAuNzksMEMxLjEyLDI0LjA0LDEuNDIsMjMuOTcsMS42MiwyMy44MSAgICAgeiIvPiYjeGE7CQk8L2c+JiN4YTsJCTxnIGlkPSJzaGFwZTQ1NzgtMTgiIHRyYW5zZm9ybT0idHJhbnNsYXRlKDExLjcxOSwtNy4yMzI5NykiPiYjeGE7CQkJPHRpdGxlIGlkPSJ0aXRsZTc2NjE0Ij5TaGVldC40NTc4PC90aXRsZT4mI3hhOwkJCTxwYXRoIGlkPSJwYXRoNzY2MTYiIGlua3NjYXBlOmNvbm5lY3Rvci1jdXJ2YXR1cmU9IjAiIHN0eWxlPSJmaWxsOiMyOUM3RjQ7IiBkPSJNMS44MSwyMi4zM2MtMC4yLTAuMTUtMC41LTAuMjQtMC44OC0wLjI0ICAgICBjLTAuOTMsMC0wLjkzLDAtMC45MywwYzAsMS45NSwwLDEuOTUsMCwxLjk1YzAuOTMsMCwwLjkzLDAsMC45MywwYzAuMzgsMCwwLjY4LTAuMDcsMC44OC0wLjI2YzAuMjMtMC4yLDAuMzQtMC40MywwLjM0LTAuNzUgICAgIEMyLjE1LDIyLjc2LDIuMDQsMjIuNTMsMS44MSwyMi4zM3oiLz4mI3hhOwkJPC9nPiYjeGE7CTwvZz4mI3hhOzwvZz4mI3hhOzwvc3ZnPg==;" vertex="1" parent="1">
          <mxGeometry x="530" y="74" width="42" height="55" as="geometry" />
        </mxCell>
        <mxCell id="mHWheTlbwNphfSnGaATk-38" value="brokers" style="shape=image;verticalLabelPosition=bottom;labelBackgroundColor=#ffffff;verticalAlign=top;aspect=fixed;imageAspect=0;image=data:image/svg+xml,PHN2ZyB4bWxuczpjYz0iaHR0cDovL2NyZWF0aXZlY29tbW9ucy5vcmcvbnMjIiB4bWxuczpkYz0iaHR0cDovL3B1cmwub3JnL2RjL2VsZW1lbnRzLzEuMS8iIHhtbG5zOmlua3NjYXBlPSJodHRwOi8vd3d3Lmlua3NjYXBlLm9yZy9uYW1lc3BhY2VzL2lua3NjYXBlIiB4bWxuczpyZGY9Imh0dHA6Ly93d3cudzMub3JnLzE5OTkvMDIvMjItcmRmLXN5bnRheC1ucyMiIHhtbG5zOnNvZGlwb2RpPSJodHRwOi8vc29kaXBvZGkuc291cmNlZm9yZ2UubmV0L0RURC9zb2RpcG9kaS0wLmR0ZCIgeG1sbnM6c3ZnPSJodHRwOi8vd3d3LnczLm9yZy8yMDAwL3N2ZyIgeG1sbnM9Imh0dHA6Ly93d3cudzMub3JnLzIwMDAvc3ZnIiB4bWxuczp4bGluaz0iaHR0cDovL3d3dy53My5vcmcvMTk5OS94bGluayIgdmVyc2lvbj0iMS4xIiBpZD0ic3ZnNzY2MjIiIGlua3NjYXBlOnZlcnNpb249IjAuOTIuMyAoMjQwNTU0NiwgMjAxOC0wMy0xMSkiIHNvZGlwb2RpOmRvY25hbWU9ImRhdGFfY29ubmVjdGlvbnMuc3ZnIiB4PSIwcHgiIHk9IjBweCIgdmlld0JveD0iMCAwIDE4LjE2IDI0LjA0IiBzdHlsZT0iZW5hYmxlLWJhY2tncm91bmQ6bmV3IDAgMCAxOC4xNiAyNC4wNDsiIHhtbDpzcGFjZT0icHJlc2VydmUiPiYjeGE7PHNvZGlwb2RpOm5hbWVkdmlldyBib3JkZXJjb2xvcj0iIzY2NjY2NiIgYm9yZGVyb3BhY2l0eT0iMSIgZml0LW1hcmdpbi1ib3R0b209IjAiIGZpdC1tYXJnaW4tbGVmdD0iMCIgZml0LW1hcmdpbi1yaWdodD0iMCIgZml0LW1hcmdpbi10b3A9IjAiIGdyaWR0b2xlcmFuY2U9IjEwIiBndWlkZXRvbGVyYW5jZT0iMTAiIGlkPSJuYW1lZHZpZXc3NjYyNCIgaW5rc2NhcGU6Y3VycmVudC1sYXllcj0ic3ZnNzY2MjIiIGlua3NjYXBlOmN4PSIxMy42MDI3NzEiIGlua3NjYXBlOmN5PSIxMi40OTI5OTMiIGlua3NjYXBlOnBhZ2VvcGFjaXR5PSIwIiBpbmtzY2FwZTpwYWdlc2hhZG93PSIyIiBpbmtzY2FwZTp3aW5kb3ctaGVpZ2h0PSIxMDE3IiBpbmtzY2FwZTp3aW5kb3ctbWF4aW1pemVkPSIxIiBpbmtzY2FwZTp3aW5kb3ctd2lkdGg9IjE5MjAiIGlua3NjYXBlOndpbmRvdy14PSItOCIgaW5rc2NhcGU6d2luZG93LXk9Ii04IiBpbmtzY2FwZTp6b29tPSIxOS4xMjI1MTEiIG9iamVjdHRvbGVyYW5jZT0iMTAiIHBhZ2Vjb2xvcj0iI2ZmZmZmZiIgc2hvd2dyaWQ9ImZhbHNlIj4mI3hhOwk8L3NvZGlwb2RpOm5hbWVkdmlldz4mI3hhOzxnIGlkPSJnNzY2MjAiIHRyYW5zZm9ybT0idHJhbnNsYXRlKDAsLTAuMDAxODYzOCkiPiYjeGE7CTx0aXRsZSBpZD0idGl0bGU3NjU3MCI+UGFnZS0xPC90aXRsZT4mI3hhOwk8ZyBpZD0iZ3JvdXA0NTY5LTEiPiYjeGE7CQk8dGl0bGUgaWQ9InRpdGxlNzY1NzIiPkRhdGEgQ29ubmVjdGlvbnM8L3RpdGxlPiYjeGE7CQk8ZyBpZD0ic2hhcGU0NTcwLTIiPiYjeGE7CQkJPHRpdGxlIGlkPSJ0aXRsZTc2NTc0Ij5TaGVldC40NTcwPC90aXRsZT4mI3hhOwkJCTxwYXRoIGlkPSJwYXRoNzY1NzYiIGlua3NjYXBlOmNvbm5lY3Rvci1jdXJ2YXR1cmU9IjAiIHN0eWxlPSJmaWxsOiMwMEJDRjI7IiBkPSJNMCwzLjMyYzAsMTcuNDUsMCwxNy40NSwwLDE3LjQ1ICAgICBjMCwxLjgsNC4xMywzLjI3LDkuMTgsMy4yN2MwLTIwLjcyLDAtMjAuNzIsMC0yMC43MkwwLDMuMzJ6Ii8+JiN4YTsJCTwvZz4mI3hhOwkJPGcgaWQ9InNoYXBlNDU3MS00IiB0cmFuc2Zvcm09InRyYW5zbGF0ZSg4Ljk4NDU3KSI+JiN4YTsJCQk8dGl0bGUgaWQ9InRpdGxlNzY1NzkiPlNoZWV0LjQ1NzE8L3RpdGxlPiYjeGE7CQkJPHBhdGggaWQ9InBhdGg3NjU4MSIgaW5rc2NhcGU6Y29ubmVjdG9yLWN1cnZhdHVyZT0iMCIgc3R5bGU9ImZpbGw6IzI5QzdGNDsiIGQ9Ik0wLDI0LjA0YzAuMTIsMCwwLjEyLDAsMC4xMiwwICAgICBjNS4wMSwwLDkuMDYtMS40Nyw5LjA2LTMuMjdjMC0xNy40NSwwLTE3LjQ1LDAtMTcuNDVDMCwzLjMyLDAsMy4zMiwwLDMuMzJWMjQuMDR6Ii8+JiN4YTsJCTwvZz4mI3hhOwkJPGcgaWQ9InNoYXBlNDU3Mi02IiB0cmFuc2Zvcm09InRyYW5zbGF0ZSgwLC0xNy4zOTgyKSI+JiN4YTsJCQk8dGl0bGUgaWQ9InRpdGxlNzY1ODQiPlNoZWV0LjQ1NzI8L3RpdGxlPiYjeGE7CQkJPHBhdGggaWQ9InBhdGg3NjU4NiIgaW5rc2NhcGU6Y29ubmVjdG9yLWN1cnZhdHVyZT0iMCIgc3R5bGU9ImZpbGw6I0ZGRkZGRjsiIGQ9Ik0wLDIwLjcyYzAtMS44Myw0LjA4LTMuMzIsOS4wOC0zLjMyICAgICBjNS4wMiwwLDkuMDgsMS40OSw5LjA4LDMuMzJjMCwxLjg1LTQuMDYsMy4zMi05LjA4LDMuMzJDNC4wOCwyNC4wNCwwLDIyLjU3LDAsMjAuNzJ6Ii8+JiN4YTsJCTwvZz4mI3hhOwkJPGcgaWQ9InNoYXBlNDU3My04IiB0cmFuc2Zvcm09InRyYW5zbGF0ZSgxLjk1MzE3LC0xOC43NjY2KSI+JiN4YTsJCQk8dGl0bGUgaWQ9InRpdGxlNzY1ODkiPlNoZWV0LjQ1NzM8L3RpdGxlPiYjeGE7CQkJPHBhdGggaWQ9InBhdGg3NjU5MSIgaW5rc2NhcGU6Y29ubmVjdG9yLWN1cnZhdHVyZT0iMCIgc3R5bGU9ImZpbGw6Izg1QjM1MTsiIGQ9Ik0wLDIxLjg5YzAtMS4xOCwzLjItMi4xNSw3LjEzLTIuMTUgICAgIGMzLjk0LDAsNy4xMywwLjk3LDcuMTMsMi4xNWMwLDEuMi0zLjE5LDIuMTUtNy4xMywyLjE1QzMuMiwyNC4wNCwwLDIzLjA5LDAsMjEuODl6Ii8+JiN4YTsJCTwvZz4mI3hhOwkJPGcgaWQ9InNoYXBlNDU3NC0xMCIgdHJhbnNmb3JtPSJ0cmFuc2xhdGUoMS45NTMxNywtMTkuNTQ4NikiPiYjeGE7CQkJPHRpdGxlIGlkPSJ0aXRsZTc2NTk0Ij5TaGVldC40NTc0PC90aXRsZT4mI3hhOwkJCTxwYXRoIGlkPSJwYXRoNzY1OTYiIGlua3NjYXBlOmNvbm5lY3Rvci1jdXJ2YXR1cmU9IjAiIHN0eWxlPSJmaWxsOiNCQUM4NEE7IiBkPSJNMTIuNzYsMjQuMDRjMC45Mi0wLjM5LDEuNS0wLjgxLDEuNS0xLjMxICAgICBjMC0xLjIzLTMuMi0yLjItNy4xMy0yLjJTMCwyMS41LDAsMjIuNzNjMCwwLjUsMC41OSwwLjkyLDEuNTEsMS4zMWMxLjMxLTAuNSwzLjMxLTAuODUsNS42Mi0wLjg1ICAgICBDOS40MSwyMy4xOSwxMS40NSwyMy41NCwxMi43NiwyNC4wNHoiLz4mI3hhOwkJPC9nPiYjeGE7CQk8ZyBpZD0ic2hhcGU0NTc1LTEyIiB0cmFuc2Zvcm09InRyYW5zbGF0ZSgyLjUzOTEyLC02LjA2MDA2KSI+JiN4YTsJCQk8dGl0bGUgaWQ9InRpdGxlNzY1OTkiPlNoZWV0LjQ1NzU8L3RpdGxlPiYjeGE7CQkJPHBhdGggaWQ9InBhdGg3NjYwMSIgaW5rc2NhcGU6Y29ubmVjdG9yLWN1cnZhdHVyZT0iMCIgc3R5bGU9ImZpbGw6I0ZGRkZGRjsiIGQ9Ik0xMi4zNSwyMy40MmMtMC41LDAuNDMtMS4xMiwwLjYyLTEuOTcsMC42MiAgICAgYy0yLjgyLDAtMi44MiwwLTIuODIsMGMwLTcuNDIsMC03LjQyLDAtNy40MmMyLjY3LDAsMi42NywwLDIuNjcsMGMwLjg1LDAsMS40NiwwLjEyLDEuOTMsMC40N2MwLjQzLDAuMjcsMC42MiwwLjcsMC42MiwxLjI1ICAgICBjMCwwLjQzLTAuMTYsMC43OC0wLjQ2LDEuMTRjLTAuMjcsMC4yMy0wLjU5LDAuNDItMC45NywwLjU1bDAsMGMwLjU0LDAuMDcsMC45NywwLjI2LDEuMjcsMC42MmMwLjMyLDAuMzIsMC40NywwLjcxLDAuNDcsMS4xNyAgICAgQzEzLjA5LDIyLjQ4LDEyLjgyLDIzLjAzLDEyLjM1LDIzLjQyeiBNNS40NywyMi45OWMtMC43LDAuNzEtMS42NywxLjA1LTIuODMsMS4wNWMtMi42NCwwLTIuNjQsMC0yLjY0LDBjMC03LjQyLDAtNy40MiwwLTcuNDIgICAgIGMyLjY0LDAsMi42NCwwLDIuNjQsMGMyLjYsMCwzLjksMS4xNywzLjksMy42QzYuNTQsMjEuMzksNi4yLDIyLjI5LDUuNDcsMjIuOTl6Ii8+JiN4YTsJCTwvZz4mI3hhOwkJPGcgaWQ9InNoYXBlNDU3Ni0xNCIgdHJhbnNmb3JtPSJ0cmFuc2xhdGUoNC4xMDE2NSwtNy40Mjg0NikiPiYjeGE7CQkJPHRpdGxlIGlkPSJ0aXRsZTc2NjA0Ij5TaGVldC40NTc2PC90aXRsZT4mI3hhOwkJCTxwYXRoIGlkPSJwYXRoNzY2MDYiIGlua3NjYXBlOmNvbm5lY3Rvci1jdXJ2YXR1cmU9IjAiIHN0eWxlPSJmaWxsOiMwMEJDRjI7IiBkPSJNMC44NywxOS4zNWMtMC44NywwLTAuODcsMC0wLjg3LDAgICAgIGMwLDQuNjksMCw0LjY5LDAsNC42OWMwLjg3LDAsMC44NywwLDAuODcsMGMwLjc4LDAsMS4zOS0wLjIzLDEuOC0wLjY0YzAuNDYtMC40MywwLjY1LTEuMDIsMC42NS0xLjc1YzAtMC43LTAuMTktMS4yNS0wLjYxLTEuNjcgICAgIEMyLjI2LDE5LjYsMS42NSwxOS4zNSwwLjg3LDE5LjM1eiIvPiYjeGE7CQk8L2c+JiN4YTsJCTxnIGlkPSJzaGFwZTQ1NzctMTYiIHRyYW5zZm9ybT0idHJhbnNsYXRlKDExLjcxOSwtMTAuMzYwNykiPiYjeGE7CQkJPHRpdGxlIGlkPSJ0aXRsZTc2NjA5Ij5TaGVldC40NTc3PC90aXRsZT4mI3hhOwkJCTxwYXRoIGlkPSJwYXRoNzY2MTEiIGlua3NjYXBlOmNvbm5lY3Rvci1jdXJ2YXR1cmU9IjAiIHN0eWxlPSJmaWxsOiMyOUM3RjQ7IiBkPSJNMS42MiwyMy44MWMwLjIxLTAuMTksMC4zMy0wLjQzLDAuMzMtMC42OSAgICAgYzAtMC41NS0wLjQxLTAuODMtMS4yOC0wLjgzYy0wLjY3LDAtMC42NywwLTAuNjcsMGMwLDEuNzUsMCwxLjc1LDAsMS43NWMwLjc5LDAsMC43OSwwLDAuNzksMEMxLjEyLDI0LjA0LDEuNDIsMjMuOTcsMS42MiwyMy44MSAgICAgeiIvPiYjeGE7CQk8L2c+JiN4YTsJCTxnIGlkPSJzaGFwZTQ1NzgtMTgiIHRyYW5zZm9ybT0idHJhbnNsYXRlKDExLjcxOSwtNy4yMzI5NykiPiYjeGE7CQkJPHRpdGxlIGlkPSJ0aXRsZTc2NjE0Ij5TaGVldC40NTc4PC90aXRsZT4mI3hhOwkJCTxwYXRoIGlkPSJwYXRoNzY2MTYiIGlua3NjYXBlOmNvbm5lY3Rvci1jdXJ2YXR1cmU9IjAiIHN0eWxlPSJmaWxsOiMyOUM3RjQ7IiBkPSJNMS44MSwyMi4zM2MtMC4yLTAuMTUtMC41LTAuMjQtMC44OC0wLjI0ICAgICBjLTAuOTMsMC0wLjkzLDAtMC45MywwYzAsMS45NSwwLDEuOTUsMCwxLjk1YzAuOTMsMCwwLjkzLDAsMC45MywwYzAuMzgsMCwwLjY4LTAuMDcsMC44OC0wLjI2YzAuMjMtMC4yLDAuMzQtMC40MywwLjM0LTAuNzUgICAgIEMyLjE1LDIyLjc2LDIuMDQsMjIuNTMsMS44MSwyMi4zM3oiLz4mI3hhOwkJPC9nPiYjeGE7CTwvZz4mI3hhOzwvZz4mI3hhOzwvc3ZnPg==;" vertex="1" parent="1">
          <mxGeometry x="530" y="176" width="42" height="55" as="geometry" />
        </mxCell>
        <mxCell id="mHWheTlbwNphfSnGaATk-39" value="eCom Session" style="shape=image;verticalLabelPosition=bottom;labelBackgroundColor=#ffffff;verticalAlign=top;aspect=fixed;imageAspect=0;image=data:image/svg+xml,PHN2ZyB4bWxuczpjYz0iaHR0cDovL2NyZWF0aXZlY29tbW9ucy5vcmcvbnMjIiB4bWxuczpkYz0iaHR0cDovL3B1cmwub3JnL2RjL2VsZW1lbnRzLzEuMS8iIHhtbG5zOmlua3NjYXBlPSJodHRwOi8vd3d3Lmlua3NjYXBlLm9yZy9uYW1lc3BhY2VzL2lua3NjYXBlIiB4bWxuczpyZGY9Imh0dHA6Ly93d3cudzMub3JnLzE5OTkvMDIvMjItcmRmLXN5bnRheC1ucyMiIHhtbG5zOnNvZGlwb2RpPSJodHRwOi8vc29kaXBvZGkuc291cmNlZm9yZ2UubmV0L0RURC9zb2RpcG9kaS0wLmR0ZCIgeG1sbnM6c3ZnPSJodHRwOi8vd3d3LnczLm9yZy8yMDAwL3N2ZyIgeG1sbnM9Imh0dHA6Ly93d3cudzMub3JnLzIwMDAvc3ZnIiB4bWxuczp4bGluaz0iaHR0cDovL3d3dy53My5vcmcvMTk5OS94bGluayIgdmVyc2lvbj0iMS4xIiBpZD0ic3ZnNzY2MjIiIGlua3NjYXBlOnZlcnNpb249IjAuOTIuMyAoMjQwNTU0NiwgMjAxOC0wMy0xMSkiIHNvZGlwb2RpOmRvY25hbWU9ImRhdGFfY29ubmVjdGlvbnMuc3ZnIiB4PSIwcHgiIHk9IjBweCIgdmlld0JveD0iMCAwIDE4LjE2IDI0LjA0IiBzdHlsZT0iZW5hYmxlLWJhY2tncm91bmQ6bmV3IDAgMCAxOC4xNiAyNC4wNDsiIHhtbDpzcGFjZT0icHJlc2VydmUiPiYjeGE7PHNvZGlwb2RpOm5hbWVkdmlldyBib3JkZXJjb2xvcj0iIzY2NjY2NiIgYm9yZGVyb3BhY2l0eT0iMSIgZml0LW1hcmdpbi1ib3R0b209IjAiIGZpdC1tYXJnaW4tbGVmdD0iMCIgZml0LW1hcmdpbi1yaWdodD0iMCIgZml0LW1hcmdpbi10b3A9IjAiIGdyaWR0b2xlcmFuY2U9IjEwIiBndWlkZXRvbGVyYW5jZT0iMTAiIGlkPSJuYW1lZHZpZXc3NjYyNCIgaW5rc2NhcGU6Y3VycmVudC1sYXllcj0ic3ZnNzY2MjIiIGlua3NjYXBlOmN4PSIxMy42MDI3NzEiIGlua3NjYXBlOmN5PSIxMi40OTI5OTMiIGlua3NjYXBlOnBhZ2VvcGFjaXR5PSIwIiBpbmtzY2FwZTpwYWdlc2hhZG93PSIyIiBpbmtzY2FwZTp3aW5kb3ctaGVpZ2h0PSIxMDE3IiBpbmtzY2FwZTp3aW5kb3ctbWF4aW1pemVkPSIxIiBpbmtzY2FwZTp3aW5kb3ctd2lkdGg9IjE5MjAiIGlua3NjYXBlOndpbmRvdy14PSItOCIgaW5rc2NhcGU6d2luZG93LXk9Ii04IiBpbmtzY2FwZTp6b29tPSIxOS4xMjI1MTEiIG9iamVjdHRvbGVyYW5jZT0iMTAiIHBhZ2Vjb2xvcj0iI2ZmZmZmZiIgc2hvd2dyaWQ9ImZhbHNlIj4mI3hhOwk8L3NvZGlwb2RpOm5hbWVkdmlldz4mI3hhOzxnIGlkPSJnNzY2MjAiIHRyYW5zZm9ybT0idHJhbnNsYXRlKDAsLTAuMDAxODYzOCkiPiYjeGE7CTx0aXRsZSBpZD0idGl0bGU3NjU3MCI+UGFnZS0xPC90aXRsZT4mI3hhOwk8ZyBpZD0iZ3JvdXA0NTY5LTEiPiYjeGE7CQk8dGl0bGUgaWQ9InRpdGxlNzY1NzIiPkRhdGEgQ29ubmVjdGlvbnM8L3RpdGxlPiYjeGE7CQk8ZyBpZD0ic2hhcGU0NTcwLTIiPiYjeGE7CQkJPHRpdGxlIGlkPSJ0aXRsZTc2NTc0Ij5TaGVldC40NTcwPC90aXRsZT4mI3hhOwkJCTxwYXRoIGlkPSJwYXRoNzY1NzYiIGlua3NjYXBlOmNvbm5lY3Rvci1jdXJ2YXR1cmU9IjAiIHN0eWxlPSJmaWxsOiMwMEJDRjI7IiBkPSJNMCwzLjMyYzAsMTcuNDUsMCwxNy40NSwwLDE3LjQ1ICAgICBjMCwxLjgsNC4xMywzLjI3LDkuMTgsMy4yN2MwLTIwLjcyLDAtMjAuNzIsMC0yMC43MkwwLDMuMzJ6Ii8+JiN4YTsJCTwvZz4mI3hhOwkJPGcgaWQ9InNoYXBlNDU3MS00IiB0cmFuc2Zvcm09InRyYW5zbGF0ZSg4Ljk4NDU3KSI+JiN4YTsJCQk8dGl0bGUgaWQ9InRpdGxlNzY1NzkiPlNoZWV0LjQ1NzE8L3RpdGxlPiYjeGE7CQkJPHBhdGggaWQ9InBhdGg3NjU4MSIgaW5rc2NhcGU6Y29ubmVjdG9yLWN1cnZhdHVyZT0iMCIgc3R5bGU9ImZpbGw6IzI5QzdGNDsiIGQ9Ik0wLDI0LjA0YzAuMTIsMCwwLjEyLDAsMC4xMiwwICAgICBjNS4wMSwwLDkuMDYtMS40Nyw5LjA2LTMuMjdjMC0xNy40NSwwLTE3LjQ1LDAtMTcuNDVDMCwzLjMyLDAsMy4zMiwwLDMuMzJWMjQuMDR6Ii8+JiN4YTsJCTwvZz4mI3hhOwkJPGcgaWQ9InNoYXBlNDU3Mi02IiB0cmFuc2Zvcm09InRyYW5zbGF0ZSgwLC0xNy4zOTgyKSI+JiN4YTsJCQk8dGl0bGUgaWQ9InRpdGxlNzY1ODQiPlNoZWV0LjQ1NzI8L3RpdGxlPiYjeGE7CQkJPHBhdGggaWQ9InBhdGg3NjU4NiIgaW5rc2NhcGU6Y29ubmVjdG9yLWN1cnZhdHVyZT0iMCIgc3R5bGU9ImZpbGw6I0ZGRkZGRjsiIGQ9Ik0wLDIwLjcyYzAtMS44Myw0LjA4LTMuMzIsOS4wOC0zLjMyICAgICBjNS4wMiwwLDkuMDgsMS40OSw5LjA4LDMuMzJjMCwxLjg1LTQuMDYsMy4zMi05LjA4LDMuMzJDNC4wOCwyNC4wNCwwLDIyLjU3LDAsMjAuNzJ6Ii8+JiN4YTsJCTwvZz4mI3hhOwkJPGcgaWQ9InNoYXBlNDU3My04IiB0cmFuc2Zvcm09InRyYW5zbGF0ZSgxLjk1MzE3LC0xOC43NjY2KSI+JiN4YTsJCQk8dGl0bGUgaWQ9InRpdGxlNzY1ODkiPlNoZWV0LjQ1NzM8L3RpdGxlPiYjeGE7CQkJPHBhdGggaWQ9InBhdGg3NjU5MSIgaW5rc2NhcGU6Y29ubmVjdG9yLWN1cnZhdHVyZT0iMCIgc3R5bGU9ImZpbGw6Izg1QjM1MTsiIGQ9Ik0wLDIxLjg5YzAtMS4xOCwzLjItMi4xNSw3LjEzLTIuMTUgICAgIGMzLjk0LDAsNy4xMywwLjk3LDcuMTMsMi4xNWMwLDEuMi0zLjE5LDIuMTUtNy4xMywyLjE1QzMuMiwyNC4wNCwwLDIzLjA5LDAsMjEuODl6Ii8+JiN4YTsJCTwvZz4mI3hhOwkJPGcgaWQ9InNoYXBlNDU3NC0xMCIgdHJhbnNmb3JtPSJ0cmFuc2xhdGUoMS45NTMxNywtMTkuNTQ4NikiPiYjeGE7CQkJPHRpdGxlIGlkPSJ0aXRsZTc2NTk0Ij5TaGVldC40NTc0PC90aXRsZT4mI3hhOwkJCTxwYXRoIGlkPSJwYXRoNzY1OTYiIGlua3NjYXBlOmNvbm5lY3Rvci1jdXJ2YXR1cmU9IjAiIHN0eWxlPSJmaWxsOiNCQUM4NEE7IiBkPSJNMTIuNzYsMjQuMDRjMC45Mi0wLjM5LDEuNS0wLjgxLDEuNS0xLjMxICAgICBjMC0xLjIzLTMuMi0yLjItNy4xMy0yLjJTMCwyMS41LDAsMjIuNzNjMCwwLjUsMC41OSwwLjkyLDEuNTEsMS4zMWMxLjMxLTAuNSwzLjMxLTAuODUsNS42Mi0wLjg1ICAgICBDOS40MSwyMy4xOSwxMS40NSwyMy41NCwxMi43NiwyNC4wNHoiLz4mI3hhOwkJPC9nPiYjeGE7CQk8ZyBpZD0ic2hhcGU0NTc1LTEyIiB0cmFuc2Zvcm09InRyYW5zbGF0ZSgyLjUzOTEyLC02LjA2MDA2KSI+JiN4YTsJCQk8dGl0bGUgaWQ9InRpdGxlNzY1OTkiPlNoZWV0LjQ1NzU8L3RpdGxlPiYjeGE7CQkJPHBhdGggaWQ9InBhdGg3NjYwMSIgaW5rc2NhcGU6Y29ubmVjdG9yLWN1cnZhdHVyZT0iMCIgc3R5bGU9ImZpbGw6I0ZGRkZGRjsiIGQ9Ik0xMi4zNSwyMy40MmMtMC41LDAuNDMtMS4xMiwwLjYyLTEuOTcsMC42MiAgICAgYy0yLjgyLDAtMi44MiwwLTIuODIsMGMwLTcuNDIsMC03LjQyLDAtNy40MmMyLjY3LDAsMi42NywwLDIuNjcsMGMwLjg1LDAsMS40NiwwLjEyLDEuOTMsMC40N2MwLjQzLDAuMjcsMC42MiwwLjcsMC42MiwxLjI1ICAgICBjMCwwLjQzLTAuMTYsMC43OC0wLjQ2LDEuMTRjLTAuMjcsMC4yMy0wLjU5LDAuNDItMC45NywwLjU1bDAsMGMwLjU0LDAuMDcsMC45NywwLjI2LDEuMjcsMC42MmMwLjMyLDAuMzIsMC40NywwLjcxLDAuNDcsMS4xNyAgICAgQzEzLjA5LDIyLjQ4LDEyLjgyLDIzLjAzLDEyLjM1LDIzLjQyeiBNNS40NywyMi45OWMtMC43LDAuNzEtMS42NywxLjA1LTIuODMsMS4wNWMtMi42NCwwLTIuNjQsMC0yLjY0LDBjMC03LjQyLDAtNy40MiwwLTcuNDIgICAgIGMyLjY0LDAsMi42NCwwLDIuNjQsMGMyLjYsMCwzLjksMS4xNywzLjksMy42QzYuNTQsMjEuMzksNi4yLDIyLjI5LDUuNDcsMjIuOTl6Ii8+JiN4YTsJCTwvZz4mI3hhOwkJPGcgaWQ9InNoYXBlNDU3Ni0xNCIgdHJhbnNmb3JtPSJ0cmFuc2xhdGUoNC4xMDE2NSwtNy40Mjg0NikiPiYjeGE7CQkJPHRpdGxlIGlkPSJ0aXRsZTc2NjA0Ij5TaGVldC40NTc2PC90aXRsZT4mI3hhOwkJCTxwYXRoIGlkPSJwYXRoNzY2MDYiIGlua3NjYXBlOmNvbm5lY3Rvci1jdXJ2YXR1cmU9IjAiIHN0eWxlPSJmaWxsOiMwMEJDRjI7IiBkPSJNMC44NywxOS4zNWMtMC44NywwLTAuODcsMC0wLjg3LDAgICAgIGMwLDQuNjksMCw0LjY5LDAsNC42OWMwLjg3LDAsMC44NywwLDAuODcsMGMwLjc4LDAsMS4zOS0wLjIzLDEuOC0wLjY0YzAuNDYtMC40MywwLjY1LTEuMDIsMC42NS0xLjc1YzAtMC43LTAuMTktMS4yNS0wLjYxLTEuNjcgICAgIEMyLjI2LDE5LjYsMS42NSwxOS4zNSwwLjg3LDE5LjM1eiIvPiYjeGE7CQk8L2c+JiN4YTsJCTxnIGlkPSJzaGFwZTQ1NzctMTYiIHRyYW5zZm9ybT0idHJhbnNsYXRlKDExLjcxOSwtMTAuMzYwNykiPiYjeGE7CQkJPHRpdGxlIGlkPSJ0aXRsZTc2NjA5Ij5TaGVldC40NTc3PC90aXRsZT4mI3hhOwkJCTxwYXRoIGlkPSJwYXRoNzY2MTEiIGlua3NjYXBlOmNvbm5lY3Rvci1jdXJ2YXR1cmU9IjAiIHN0eWxlPSJmaWxsOiMyOUM3RjQ7IiBkPSJNMS42MiwyMy44MWMwLjIxLTAuMTksMC4zMy0wLjQzLDAuMzMtMC42OSAgICAgYzAtMC41NS0wLjQxLTAuODMtMS4yOC0wLjgzYy0wLjY3LDAtMC42NywwLTAuNjcsMGMwLDEuNzUsMCwxLjc1LDAsMS43NWMwLjc5LDAsMC43OSwwLDAuNzksMEMxLjEyLDI0LjA0LDEuNDIsMjMuOTcsMS42MiwyMy44MSAgICAgeiIvPiYjeGE7CQk8L2c+JiN4YTsJCTxnIGlkPSJzaGFwZTQ1NzgtMTgiIHRyYW5zZm9ybT0idHJhbnNsYXRlKDExLjcxOSwtNy4yMzI5NykiPiYjeGE7CQkJPHRpdGxlIGlkPSJ0aXRsZTc2NjE0Ij5TaGVldC40NTc4PC90aXRsZT4mI3hhOwkJCTxwYXRoIGlkPSJwYXRoNzY2MTYiIGlua3NjYXBlOmNvbm5lY3Rvci1jdXJ2YXR1cmU9IjAiIHN0eWxlPSJmaWxsOiMyOUM3RjQ7IiBkPSJNMS44MSwyMi4zM2MtMC4yLTAuMTUtMC41LTAuMjQtMC44OC0wLjI0ICAgICBjLTAuOTMsMC0wLjkzLDAtMC45MywwYzAsMS45NSwwLDEuOTUsMCwxLjk1YzAuOTMsMCwwLjkzLDAsMC45MywwYzAuMzgsMCwwLjY4LTAuMDcsMC44OC0wLjI2YzAuMjMtMC4yLDAuMzQtMC40MywwLjM0LTAuNzUgICAgIEMyLjE1LDIyLjc2LDIuMDQsMjIuNTMsMS44MSwyMi4zM3oiLz4mI3hhOwkJPC9nPiYjeGE7CTwvZz4mI3hhOzwvZz4mI3hhOzwvc3ZnPg==;" vertex="1" parent="1">
          <mxGeometry x="530" y="269" width="42" height="55" as="geometry" />
        </mxCell>
        <mxCell id="mHWheTlbwNphfSnGaATk-40" value="GiftCard" style="shape=image;verticalLabelPosition=bottom;labelBackgroundColor=#ffffff;verticalAlign=top;aspect=fixed;imageAspect=0;image=data:image/svg+xml,PHN2ZyB4bWxuczpjYz0iaHR0cDovL2NyZWF0aXZlY29tbW9ucy5vcmcvbnMjIiB4bWxuczpkYz0iaHR0cDovL3B1cmwub3JnL2RjL2VsZW1lbnRzLzEuMS8iIHhtbG5zOmlua3NjYXBlPSJodHRwOi8vd3d3Lmlua3NjYXBlLm9yZy9uYW1lc3BhY2VzL2lua3NjYXBlIiB4bWxuczpyZGY9Imh0dHA6Ly93d3cudzMub3JnLzE5OTkvMDIvMjItcmRmLXN5bnRheC1ucyMiIHhtbG5zOnNvZGlwb2RpPSJodHRwOi8vc29kaXBvZGkuc291cmNlZm9yZ2UubmV0L0RURC9zb2RpcG9kaS0wLmR0ZCIgeG1sbnM6c3ZnPSJodHRwOi8vd3d3LnczLm9yZy8yMDAwL3N2ZyIgeG1sbnM9Imh0dHA6Ly93d3cudzMub3JnLzIwMDAvc3ZnIiB4bWxuczp4bGluaz0iaHR0cDovL3d3dy53My5vcmcvMTk5OS94bGluayIgdmVyc2lvbj0iMS4xIiBpZD0ic3ZnNzY2MjIiIGlua3NjYXBlOnZlcnNpb249IjAuOTIuMyAoMjQwNTU0NiwgMjAxOC0wMy0xMSkiIHNvZGlwb2RpOmRvY25hbWU9ImRhdGFfY29ubmVjdGlvbnMuc3ZnIiB4PSIwcHgiIHk9IjBweCIgdmlld0JveD0iMCAwIDE4LjE2IDI0LjA0IiBzdHlsZT0iZW5hYmxlLWJhY2tncm91bmQ6bmV3IDAgMCAxOC4xNiAyNC4wNDsiIHhtbDpzcGFjZT0icHJlc2VydmUiPiYjeGE7PHNvZGlwb2RpOm5hbWVkdmlldyBib3JkZXJjb2xvcj0iIzY2NjY2NiIgYm9yZGVyb3BhY2l0eT0iMSIgZml0LW1hcmdpbi1ib3R0b209IjAiIGZpdC1tYXJnaW4tbGVmdD0iMCIgZml0LW1hcmdpbi1yaWdodD0iMCIgZml0LW1hcmdpbi10b3A9IjAiIGdyaWR0b2xlcmFuY2U9IjEwIiBndWlkZXRvbGVyYW5jZT0iMTAiIGlkPSJuYW1lZHZpZXc3NjYyNCIgaW5rc2NhcGU6Y3VycmVudC1sYXllcj0ic3ZnNzY2MjIiIGlua3NjYXBlOmN4PSIxMy42MDI3NzEiIGlua3NjYXBlOmN5PSIxMi40OTI5OTMiIGlua3NjYXBlOnBhZ2VvcGFjaXR5PSIwIiBpbmtzY2FwZTpwYWdlc2hhZG93PSIyIiBpbmtzY2FwZTp3aW5kb3ctaGVpZ2h0PSIxMDE3IiBpbmtzY2FwZTp3aW5kb3ctbWF4aW1pemVkPSIxIiBpbmtzY2FwZTp3aW5kb3ctd2lkdGg9IjE5MjAiIGlua3NjYXBlOndpbmRvdy14PSItOCIgaW5rc2NhcGU6d2luZG93LXk9Ii04IiBpbmtzY2FwZTp6b29tPSIxOS4xMjI1MTEiIG9iamVjdHRvbGVyYW5jZT0iMTAiIHBhZ2Vjb2xvcj0iI2ZmZmZmZiIgc2hvd2dyaWQ9ImZhbHNlIj4mI3hhOwk8L3NvZGlwb2RpOm5hbWVkdmlldz4mI3hhOzxnIGlkPSJnNzY2MjAiIHRyYW5zZm9ybT0idHJhbnNsYXRlKDAsLTAuMDAxODYzOCkiPiYjeGE7CTx0aXRsZSBpZD0idGl0bGU3NjU3MCI+UGFnZS0xPC90aXRsZT4mI3hhOwk8ZyBpZD0iZ3JvdXA0NTY5LTEiPiYjeGE7CQk8dGl0bGUgaWQ9InRpdGxlNzY1NzIiPkRhdGEgQ29ubmVjdGlvbnM8L3RpdGxlPiYjeGE7CQk8ZyBpZD0ic2hhcGU0NTcwLTIiPiYjeGE7CQkJPHRpdGxlIGlkPSJ0aXRsZTc2NTc0Ij5TaGVldC40NTcwPC90aXRsZT4mI3hhOwkJCTxwYXRoIGlkPSJwYXRoNzY1NzYiIGlua3NjYXBlOmNvbm5lY3Rvci1jdXJ2YXR1cmU9IjAiIHN0eWxlPSJmaWxsOiMwMEJDRjI7IiBkPSJNMCwzLjMyYzAsMTcuNDUsMCwxNy40NSwwLDE3LjQ1ICAgICBjMCwxLjgsNC4xMywzLjI3LDkuMTgsMy4yN2MwLTIwLjcyLDAtMjAuNzIsMC0yMC43MkwwLDMuMzJ6Ii8+JiN4YTsJCTwvZz4mI3hhOwkJPGcgaWQ9InNoYXBlNDU3MS00IiB0cmFuc2Zvcm09InRyYW5zbGF0ZSg4Ljk4NDU3KSI+JiN4YTsJCQk8dGl0bGUgaWQ9InRpdGxlNzY1NzkiPlNoZWV0LjQ1NzE8L3RpdGxlPiYjeGE7CQkJPHBhdGggaWQ9InBhdGg3NjU4MSIgaW5rc2NhcGU6Y29ubmVjdG9yLWN1cnZhdHVyZT0iMCIgc3R5bGU9ImZpbGw6IzI5QzdGNDsiIGQ9Ik0wLDI0LjA0YzAuMTIsMCwwLjEyLDAsMC4xMiwwICAgICBjNS4wMSwwLDkuMDYtMS40Nyw5LjA2LTMuMjdjMC0xNy40NSwwLTE3LjQ1LDAtMTcuNDVDMCwzLjMyLDAsMy4zMiwwLDMuMzJWMjQuMDR6Ii8+JiN4YTsJCTwvZz4mI3hhOwkJPGcgaWQ9InNoYXBlNDU3Mi02IiB0cmFuc2Zvcm09InRyYW5zbGF0ZSgwLC0xNy4zOTgyKSI+JiN4YTsJCQk8dGl0bGUgaWQ9InRpdGxlNzY1ODQiPlNoZWV0LjQ1NzI8L3RpdGxlPiYjeGE7CQkJPHBhdGggaWQ9InBhdGg3NjU4NiIgaW5rc2NhcGU6Y29ubmVjdG9yLWN1cnZhdHVyZT0iMCIgc3R5bGU9ImZpbGw6I0ZGRkZGRjsiIGQ9Ik0wLDIwLjcyYzAtMS44Myw0LjA4LTMuMzIsOS4wOC0zLjMyICAgICBjNS4wMiwwLDkuMDgsMS40OSw5LjA4LDMuMzJjMCwxLjg1LTQuMDYsMy4zMi05LjA4LDMuMzJDNC4wOCwyNC4wNCwwLDIyLjU3LDAsMjAuNzJ6Ii8+JiN4YTsJCTwvZz4mI3hhOwkJPGcgaWQ9InNoYXBlNDU3My04IiB0cmFuc2Zvcm09InRyYW5zbGF0ZSgxLjk1MzE3LC0xOC43NjY2KSI+JiN4YTsJCQk8dGl0bGUgaWQ9InRpdGxlNzY1ODkiPlNoZWV0LjQ1NzM8L3RpdGxlPiYjeGE7CQkJPHBhdGggaWQ9InBhdGg3NjU5MSIgaW5rc2NhcGU6Y29ubmVjdG9yLWN1cnZhdHVyZT0iMCIgc3R5bGU9ImZpbGw6Izg1QjM1MTsiIGQ9Ik0wLDIxLjg5YzAtMS4xOCwzLjItMi4xNSw3LjEzLTIuMTUgICAgIGMzLjk0LDAsNy4xMywwLjk3LDcuMTMsMi4xNWMwLDEuMi0zLjE5LDIuMTUtNy4xMywyLjE1QzMuMiwyNC4wNCwwLDIzLjA5LDAsMjEuODl6Ii8+JiN4YTsJCTwvZz4mI3hhOwkJPGcgaWQ9InNoYXBlNDU3NC0xMCIgdHJhbnNmb3JtPSJ0cmFuc2xhdGUoMS45NTMxNywtMTkuNTQ4NikiPiYjeGE7CQkJPHRpdGxlIGlkPSJ0aXRsZTc2NTk0Ij5TaGVldC40NTc0PC90aXRsZT4mI3hhOwkJCTxwYXRoIGlkPSJwYXRoNzY1OTYiIGlua3NjYXBlOmNvbm5lY3Rvci1jdXJ2YXR1cmU9IjAiIHN0eWxlPSJmaWxsOiNCQUM4NEE7IiBkPSJNMTIuNzYsMjQuMDRjMC45Mi0wLjM5LDEuNS0wLjgxLDEuNS0xLjMxICAgICBjMC0xLjIzLTMuMi0yLjItNy4xMy0yLjJTMCwyMS41LDAsMjIuNzNjMCwwLjUsMC41OSwwLjkyLDEuNTEsMS4zMWMxLjMxLTAuNSwzLjMxLTAuODUsNS42Mi0wLjg1ICAgICBDOS40MSwyMy4xOSwxMS40NSwyMy41NCwxMi43NiwyNC4wNHoiLz4mI3hhOwkJPC9nPiYjeGE7CQk8ZyBpZD0ic2hhcGU0NTc1LTEyIiB0cmFuc2Zvcm09InRyYW5zbGF0ZSgyLjUzOTEyLC02LjA2MDA2KSI+JiN4YTsJCQk8dGl0bGUgaWQ9InRpdGxlNzY1OTkiPlNoZWV0LjQ1NzU8L3RpdGxlPiYjeGE7CQkJPHBhdGggaWQ9InBhdGg3NjYwMSIgaW5rc2NhcGU6Y29ubmVjdG9yLWN1cnZhdHVyZT0iMCIgc3R5bGU9ImZpbGw6I0ZGRkZGRjsiIGQ9Ik0xMi4zNSwyMy40MmMtMC41LDAuNDMtMS4xMiwwLjYyLTEuOTcsMC42MiAgICAgYy0yLjgyLDAtMi44MiwwLTIuODIsMGMwLTcuNDIsMC03LjQyLDAtNy40MmMyLjY3LDAsMi42NywwLDIuNjcsMGMwLjg1LDAsMS40NiwwLjEyLDEuOTMsMC40N2MwLjQzLDAuMjcsMC42MiwwLjcsMC42MiwxLjI1ICAgICBjMCwwLjQzLTAuMTYsMC43OC0wLjQ2LDEuMTRjLTAuMjcsMC4yMy0wLjU5LDAuNDItMC45NywwLjU1bDAsMGMwLjU0LDAuMDcsMC45NywwLjI2LDEuMjcsMC42MmMwLjMyLDAuMzIsMC40NywwLjcxLDAuNDcsMS4xNyAgICAgQzEzLjA5LDIyLjQ4LDEyLjgyLDIzLjAzLDEyLjM1LDIzLjQyeiBNNS40NywyMi45OWMtMC43LDAuNzEtMS42NywxLjA1LTIuODMsMS4wNWMtMi42NCwwLTIuNjQsMC0yLjY0LDBjMC03LjQyLDAtNy40MiwwLTcuNDIgICAgIGMyLjY0LDAsMi42NCwwLDIuNjQsMGMyLjYsMCwzLjksMS4xNywzLjksMy42QzYuNTQsMjEuMzksNi4yLDIyLjI5LDUuNDcsMjIuOTl6Ii8+JiN4YTsJCTwvZz4mI3hhOwkJPGcgaWQ9InNoYXBlNDU3Ni0xNCIgdHJhbnNmb3JtPSJ0cmFuc2xhdGUoNC4xMDE2NSwtNy40Mjg0NikiPiYjeGE7CQkJPHRpdGxlIGlkPSJ0aXRsZTc2NjA0Ij5TaGVldC40NTc2PC90aXRsZT4mI3hhOwkJCTxwYXRoIGlkPSJwYXRoNzY2MDYiIGlua3NjYXBlOmNvbm5lY3Rvci1jdXJ2YXR1cmU9IjAiIHN0eWxlPSJmaWxsOiMwMEJDRjI7IiBkPSJNMC44NywxOS4zNWMtMC44NywwLTAuODcsMC0wLjg3LDAgICAgIGMwLDQuNjksMCw0LjY5LDAsNC42OWMwLjg3LDAsMC44NywwLDAuODcsMGMwLjc4LDAsMS4zOS0wLjIzLDEuOC0wLjY0YzAuNDYtMC40MywwLjY1LTEuMDIsMC42NS0xLjc1YzAtMC43LTAuMTktMS4yNS0wLjYxLTEuNjcgICAgIEMyLjI2LDE5LjYsMS42NSwxOS4zNSwwLjg3LDE5LjM1eiIvPiYjeGE7CQk8L2c+JiN4YTsJCTxnIGlkPSJzaGFwZTQ1NzctMTYiIHRyYW5zZm9ybT0idHJhbnNsYXRlKDExLjcxOSwtMTAuMzYwNykiPiYjeGE7CQkJPHRpdGxlIGlkPSJ0aXRsZTc2NjA5Ij5TaGVldC40NTc3PC90aXRsZT4mI3hhOwkJCTxwYXRoIGlkPSJwYXRoNzY2MTEiIGlua3NjYXBlOmNvbm5lY3Rvci1jdXJ2YXR1cmU9IjAiIHN0eWxlPSJmaWxsOiMyOUM3RjQ7IiBkPSJNMS42MiwyMy44MWMwLjIxLTAuMTksMC4zMy0wLjQzLDAuMzMtMC42OSAgICAgYzAtMC41NS0wLjQxLTAuODMtMS4yOC0wLjgzYy0wLjY3LDAtMC42NywwLTAuNjcsMGMwLDEuNzUsMCwxLjc1LDAsMS43NWMwLjc5LDAsMC43OSwwLDAuNzksMEMxLjEyLDI0LjA0LDEuNDIsMjMuOTcsMS42MiwyMy44MSAgICAgeiIvPiYjeGE7CQk8L2c+JiN4YTsJCTxnIGlkPSJzaGFwZTQ1NzgtMTgiIHRyYW5zZm9ybT0idHJhbnNsYXRlKDExLjcxOSwtNy4yMzI5NykiPiYjeGE7CQkJPHRpdGxlIGlkPSJ0aXRsZTc2NjE0Ij5TaGVldC40NTc4PC90aXRsZT4mI3hhOwkJCTxwYXRoIGlkPSJwYXRoNzY2MTYiIGlua3NjYXBlOmNvbm5lY3Rvci1jdXJ2YXR1cmU9IjAiIHN0eWxlPSJmaWxsOiMyOUM3RjQ7IiBkPSJNMS44MSwyMi4zM2MtMC4yLTAuMTUtMC41LTAuMjQtMC44OC0wLjI0ICAgICBjLTAuOTMsMC0wLjkzLDAtMC45MywwYzAsMS45NSwwLDEuOTUsMCwxLjk1YzAuOTMsMCwwLjkzLDAsMC45MywwYzAuMzgsMCwwLjY4LTAuMDcsMC44OC0wLjI2YzAuMjMtMC4yLDAuMzQtMC40MywwLjM0LTAuNzUgICAgIEMyLjE1LDIyLjc2LDIuMDQsMjIuNTMsMS44MSwyMi4zM3oiLz4mI3hhOwkJPC9nPiYjeGE7CTwvZz4mI3hhOzwvZz4mI3hhOzwvc3ZnPg==;" vertex="1" parent="1">
          <mxGeometry x="530" y="366" width="42" height="55" as="geometry" />
        </mxCell>
        <mxCell id="mHWheTlbwNphfSnGaATk-50" value="Azure Monitor" style="aspect=fixed;html=1;points=[];align=center;image;fontSize=12;image=img/lib/azure2/management_governance/Monitor.svg;" vertex="1" parent="1">
          <mxGeometry x="202.5" y="435" width="64" height="64" as="geometry" />
        </mxCell>
        <mxCell id="mHWheTlbwNphfSnGaATk-52" value="Azure Container Registry" style="shape=image;verticalLabelPosition=bottom;labelBackgroundColor=#ffffff;verticalAlign=top;aspect=fixed;imageAspect=0;image=data:image/svg+xml,PHN2ZyB4bWxuczp2PSJodHRwOi8vc2NoZW1hcy5taWNyb3NvZnQuY29tL3Zpc2lvLzIwMDMvU1ZHRXh0ZW5zaW9ucy8iIHhtbG5zOmRjPSJodHRwOi8vcHVybC5vcmcvZGMvZWxlbWVudHMvMS4xLyIgeG1sbnM6Y2M9Imh0dHA6Ly9jcmVhdGl2ZWNvbW1vbnMub3JnL25zIyIgeG1sbnM6cmRmPSJodHRwOi8vd3d3LnczLm9yZy8xOTk5LzAyLzIyLXJkZi1zeW50YXgtbnMjIiB4bWxuczpzdmc9Imh0dHA6Ly93d3cudzMub3JnLzIwMDAvc3ZnIiB4bWxucz0iaHR0cDovL3d3dy53My5vcmcvMjAwMC9zdmciIHhtbG5zOnNvZGlwb2RpPSJodHRwOi8vc29kaXBvZGkuc291cmNlZm9yZ2UubmV0L0RURC9zb2RpcG9kaS0wLmR0ZCIgeG1sbnM6aW5rc2NhcGU9Imh0dHA6Ly93d3cuaW5rc2NhcGUub3JnL25hbWVzcGFjZXMvaW5rc2NhcGUiIHZlcnNpb249IjEuMSIgaWQ9InN2ZzU2NjExIiBpbmtzY2FwZTp2ZXJzaW9uPSIwLjkyLjMgKDI0MDU1NDYsIDIwMTgtMDMtMTEpIiBzb2RpcG9kaTpkb2NuYW1lPSJhenVyZV9jb250YWluZXJfcmVnaXN0cnkuc3ZnIiB4PSIwcHgiIHk9IjBweCIgdmlld0JveD0iMCAwIDI2Ljk0IDIzLjYzIiB4bWw6c3BhY2U9InByZXNlcnZlIiB3aWR0aD0iMjYuOTQwMDAxIiBoZWlnaHQ9IjIzLjYyOTk5OSI+PG1ldGFkYXRhIGlkPSJtZXRhZGF0YTU5OTIiPjxyZGY6UkRGPjxjYzpXb3JrIHJkZjphYm91dD0iIj48ZGM6Zm9ybWF0PmltYWdlL3N2Zyt4bWw8L2RjOmZvcm1hdD48ZGM6dHlwZSByZGY6cmVzb3VyY2U9Imh0dHA6Ly9wdXJsLm9yZy9kYy9kY21pdHlwZS9TdGlsbEltYWdlIi8+PGRjOnRpdGxlLz48L2NjOldvcms+PC9yZGY6UkRGPjwvbWV0YWRhdGE+PGRlZnMgaWQ9ImRlZnM1OTkwIi8+JiN4YTs8ZmlsdGVyIGlkPSJmaWx0ZXJfMiI+JiN4YTsJPGZlR2F1c3NpYW5CbHVyIGlkPSJmZUdhdXNzaWFuQmx1cjU2NTI0IiBzdGREZXZpYXRpb249IjIiLz4mI3hhOzwvZmlsdGVyPiYjeGE7PHNvZGlwb2RpOm5hbWVkdmlldyBib3JkZXJjb2xvcj0iIzY2NjY2NiIgYm9yZGVyb3BhY2l0eT0iMSIgZml0LW1hcmdpbi1ib3R0b209IjAiIGZpdC1tYXJnaW4tbGVmdD0iMCIgZml0LW1hcmdpbi1yaWdodD0iMCIgZml0LW1hcmdpbi10b3A9IjAiIGdyaWR0b2xlcmFuY2U9IjEwIiBndWlkZXRvbGVyYW5jZT0iMTAiIGlkPSJuYW1lZHZpZXc1NjYxMyIgaW5rc2NhcGU6Y3VycmVudC1sYXllcj0ic3ZnNTY2MTEiIGlua3NjYXBlOmN4PSItMy4yMzMzOTE1IiBpbmtzY2FwZTpjeT0iMy4zOTE1MjcxIiBpbmtzY2FwZTpwYWdlb3BhY2l0eT0iMCIgaW5rc2NhcGU6cGFnZXNoYWRvdz0iMiIgaW5rc2NhcGU6d2luZG93LWhlaWdodD0iMTAxNyIgaW5rc2NhcGU6d2luZG93LW1heGltaXplZD0iMSIgaW5rc2NhcGU6d2luZG93LXdpZHRoPSIxOTIwIiBpbmtzY2FwZTp3aW5kb3cteD0iLTgiIGlua3NjYXBlOndpbmRvdy15PSItOCIgaW5rc2NhcGU6em9vbT0iMTUuMjM5OTUyIiBvYmplY3R0b2xlcmFuY2U9IjEwIiBwYWdlY29sb3I9IiNmZmZmZmYiIHNob3dncmlkPSJmYWxzZSI+JiN4YTsJPC9zb2RpcG9kaTpuYW1lZHZpZXc+JiN4YTs8djpkb2N1bWVudFByb3BlcnRpZXMgdjpsYW5nSUQ9IjIwNTciIHY6bWV0cmljPSJ0cnVlIiB2OnZpZXdNYXJrdXA9ImZhbHNlIi8+JiN4YTsmI3hhOzxwYXRoIGlkPSJwYXRoNTY1MzciIGlua3NjYXBlOmNvbm5lY3Rvci1jdXJ2YXR1cmU9IjAiIHN0eWxlPSJmaWxsOiM1OWI0ZDkiIGQ9Ik0gOC4xOCwxOC4wMyBIIDQuNDMgQyAxLjkzLDE3LjM5IDAsMTUuMzYgMCwxMi42NyAwLDEwLjQ0IDEuNCw4LjQgMy4yOSw3LjYzIDMuMjcsNy40IDMuMjYsNy4xNiAzLjI2LDYuOTMgMy4yNiwzLjEgNi4yNywwIDkuOTgsMCBjIDIuMDQsMCAzLjk3LDAuOTUgNS4yNCwyLjU5IDAuNzYsLTAuNCAxLjYsLTAuNiAyLjQ1LC0wLjYgMi45NCwwIDUuNDksMi42OSA1LjU5LDUuNyBMIDEzLjIyLDMuNDIgOC4xOCw2LjU1IFoiLz4mI3hhOyYjeGE7PHBhdGggaWQ9InBhdGg1NjU0NyIgaW5rc2NhcGU6Y29ubmVjdG9yLWN1cnZhdHVyZT0iMCIgc3R5bGU9ImZpbGw6Izk1OTU5NSIgZD0iTSAyNi45NCwyMC44OCAxMy4xLDIzLjYgMTMuMTYsMTMuNTggMjYuOTQsMTYuMjEgWiBNIDEzLjE1LDQuNzMgMjYuOTQsMTAuMDcgdiA1LjM2IEwgMTMuMTcsMTIuNDEgWiIvPiYjeGE7JiN4YTsmI3hhOzxwYXRoIGlkPSJwYXRoNTY1NTkiIGlua3NjYXBlOmNvbm5lY3Rvci1jdXJ2YXR1cmU9IjAiIHN0eWxlPSJmaWxsOiNiM2I0YjUiIGQ9Ik0gMTMuMTcsMTIuNCA5LjQyLDE0LjIgViA3LjA2IGwgMy43MywtMi4zMyB6IG0gMTMuMTQsMi40MSAtMTIuNSwtMi45NCB2IC02LjQgbCAxMi41LDQuNzUgeiBtIC02Ljg4LC0yLjMgMS4yNSwwLjM2IFYgOC42OSBMIDE5LjQzLDguMjQgWiBNIDE4LjE4LDcuODMgMTYuOTMsNy4zNyB2IDQuNDYgbCAxLjI1LDAuMzYgeiBtIDMuNzUsNS4zOSAxLjI0LDAuMzMgMC4wMiwtMy45NyAtMS4yNiwtMC40NCB6IG0gLTcuNSwtMi4wNSAxLjI1LDAuMzMgViA2Ljk0IEwgMTQuNDMsNi41MiBaIG0gMTEuMjUsLTAuNzEgLTEuMjUsLTAuNDUgdiAzLjg4IGwgMS4yNSwwLjM1IHogbSAtMTEuODcsNC4xOSB2IDguMjYgbCAxMi41LC0yLjM2IHYgLTMuOTIgeiBtIDAuNjIsNy4yOSB2IC02LjM1IGwgMS4yNSwwLjE2IHYgNS45OCB6IG0gMy43NSwtMC42NSAtMS4yNSwwLjI0IHYgLTUuNjIgbCAxLjI1LDAuMTkgeiBtIDEuMjUsLTAuMTggdiAtNC44OCBsIDEuMjUsMC4xNiB2IDQuNDggeiBtIDMuNzUsLTAuNjggLTEuMjUsMC4yMiB2IC00LjEgbCAxLjI1LDAuMTkgeiBtIDIuNTUsLTAuNDIgLTEuMywwLjI0IHYgLTMuMzggbCAxLjIxLDAuMTYgeiIvPiYjeGE7JiN4YTsmI3hhOzxwYXRoIGlkPSJwYXRoNTY1NjkiIGlua3NjYXBlOmNvbm5lY3Rvci1jdXJ2YXR1cmU9IjAiIHN0eWxlPSJmaWxsOiM5NTk1OTUiIGQ9Im0gMTAuNjksMTIuMjggLTAuNjMsMC4zOCBWIDcuNTkgbCAwLjYzLC0wLjM1IHogbSAxLjI0LC01Ljc4IC0wLjYyLDAuNDQgLTAuMDEsNC45MyAwLjYzLC0wLjM1IHoiLz4mI3hhOyYjeGE7PHBhdGggaWQ9InBhdGg1NjU3OSIgaW5rc2NhcGU6Y29ubmVjdG9yLWN1cnZhdHVyZT0iMCIgc3R5bGU9ImZpbGw6I2IzYjRiNSIgZD0iTSA5LjQyLDIxLjMyIDkuNCwxNS40NiAxMy4xNiwxMy41OSAxMy4xOCwyMy42MyBaIi8+JiN4YTsmI3hhOyYjeGE7PHBhdGggaWQ9InBhdGg1NjU4OSIgaW5rc2NhcGU6Y29ubmVjdG9yLWN1cnZhdHVyZT0iMCIgc3R5bGU9ImZpbGw6Izk1OTU5NSIgZD0iTSAxMC42MSwyMS4zIDEwLjA0LDIxIHYgLTQuOTUgbCAwLjU3LC0wLjI2IHogbSAxLjM0LC02LjEzIC0wLjYyLDAuMjggLTAuMDIsNi4yNCAwLjY0LDAuMzQgeiIvPiYjeGE7JiN4YTs8cGF0aCBpZD0icGF0aDU2NTk3IiBpbmtzY2FwZTpjb25uZWN0b3ItY3VydmF0dXJlPSIwIiBzdHlsZT0iZmlsbDojN2E3YTdhIiBkPSJtIDI1LjY3LDEwLjg4IC0xMS4yNCwtMy44OSAwLjAyLC0wLjUgMTEuMjIsMy45OCB6IG0gLTAuMDMsNi4xNSAtMTEuMTksLTEuNDQgdiAwLjUgbCAxMS4yLDEuMzYgeiBNIDExLjkzLDcuMTcgViA2LjUzIEwgMTAuMTIsNy41NyAxMC4wOSw4LjEgWiBtIC0xLjg5LDkuMjUgMS45MSwtMC43MSB2IC0wLjU1IGwgLTEuOTEsMC44OSB6Ii8+JiN4YTsmI3hhOyYjeGE7PC9zdmc+;" vertex="1" parent="1">
          <mxGeometry x="451" y="470" width="77.45" height="70" as="geometry" />
        </mxCell>
        <mxCell id="mHWheTlbwNphfSnGaATk-59" value="" style="rounded=1;whiteSpace=wrap;html=1;" vertex="1" parent="1">
          <mxGeometry x="80" y="170" width="350" height="200" as="geometry" />
        </mxCell>
        <mxCell id="mHWheTlbwNphfSnGaATk-5" value="" style="sketch=0;html=1;dashed=0;whitespace=wrap;fillColor=#2875E2;strokeColor=#ffffff;points=[[0.005,0.63,0],[0.1,0.2,0],[0.9,0.2,0],[0.5,0,0],[0.995,0.63,0],[0.72,0.99,0],[0.5,1,0],[0.28,0.99,0]];verticalLabelPosition=bottom;align=center;verticalAlign=top;shape=mxgraph.kubernetes.icon;prIcon=node" vertex="1" parent="1">
          <mxGeometry x="89.5" y="170" width="50" height="48" as="geometry" />
        </mxCell>
        <mxCell id="mHWheTlbwNphfSnGaATk-7" value="" style="sketch=0;pointerEvents=1;shadow=0;dashed=0;html=1;strokeColor=none;fillColor=#505050;labelPosition=center;verticalLabelPosition=bottom;verticalAlign=top;outlineConnect=0;align=center;shape=mxgraph.office.concepts.application_windows;" vertex="1" parent="1">
          <mxGeometry x="124" y="226" width="59" height="47" as="geometry" />
        </mxCell>
        <mxCell id="mHWheTlbwNphfSnGaATk-8" value="" style="sketch=0;pointerEvents=1;shadow=0;dashed=0;html=1;strokeColor=none;fillColor=#505050;labelPosition=center;verticalLabelPosition=bottom;verticalAlign=top;outlineConnect=0;align=center;shape=mxgraph.office.concepts.application_windows;" vertex="1" parent="1">
          <mxGeometry x="195" y="226" width="59" height="47" as="geometry" />
        </mxCell>
        <mxCell id="mHWheTlbwNphfSnGaATk-9" value="" style="sketch=0;pointerEvents=1;shadow=0;dashed=0;html=1;strokeColor=none;fillColor=#505050;labelPosition=center;verticalLabelPosition=bottom;verticalAlign=top;outlineConnect=0;align=center;shape=mxgraph.office.concepts.application_windows;" vertex="1" parent="1">
          <mxGeometry x="264" y="226" width="59" height="47" as="geometry" />
        </mxCell>
        <mxCell id="mHWheTlbwNphfSnGaATk-65" value="" style="verticalLabelPosition=bottom;html=1;verticalAlign=top;align=center;strokeColor=none;fillColor=#00BEF2;shape=mxgraph.azure.queue_generic;pointerEvents=1;" vertex="1" parent="1">
          <mxGeometry x="120" y="283" width="50" height="15" as="geometry" />
        </mxCell>
        <mxCell id="mHWheTlbwNphfSnGaATk-68" value="" style="verticalLabelPosition=bottom;html=1;verticalAlign=top;align=center;strokeColor=none;fillColor=#00BEF2;shape=mxgraph.azure.queue_generic;pointerEvents=1;" vertex="1" parent="1">
          <mxGeometry x="203" y="283" width="50" height="15" as="geometry" />
        </mxCell>
        <mxCell id="mHWheTlbwNphfSnGaATk-75" value="" style="group" vertex="1" connectable="0" parent="1">
          <mxGeometry x="287" y="280" width="100" height="50" as="geometry" />
        </mxCell>
        <mxCell id="mHWheTlbwNphfSnGaATk-74" value="" style="html=1;verticalLabelPosition=bottom;align=center;labelBackgroundColor=#ffffff;verticalAlign=top;strokeWidth=2;strokeColor=#0080F0;shadow=0;dashed=0;shape=mxgraph.ios7.icons.credit_card;" vertex="1" parent="mHWheTlbwNphfSnGaATk-75">
          <mxGeometry width="100" height="50" as="geometry" />
        </mxCell>
        <mxCell id="mHWheTlbwNphfSnGaATk-69" value="" style="shape=image;html=1;verticalAlign=top;verticalLabelPosition=bottom;labelBackgroundColor=#ffffff;imageAspect=0;aspect=fixed;image=https://cdn1.iconfinder.com/data/icons/filled-line-christmas-icons/75/_gift-128.png" vertex="1" parent="mHWheTlbwNphfSnGaATk-75">
          <mxGeometry x="68.57142857142857" y="20" width="30" height="30" as="geometry" />
        </mxCell>
        <mxCell id="mHWheTlbwNphfSnGaATk-82" value="Azure KeyVault" style="shape=image;verticalLabelPosition=bottom;labelBackgroundColor=#ffffff;verticalAlign=top;aspect=fixed;imageAspect=0;image=data:image/svg+xml,PHN2ZyB4bWxuczpkYz0iaHR0cDovL3B1cmwub3JnL2RjL2VsZW1lbnRzLzEuMS8iIHhtbG5zOmNjPSJodHRwOi8vY3JlYXRpdmVjb21tb25zLm9yZy9ucyMiIHhtbG5zOnJkZj0iaHR0cDovL3d3dy53My5vcmcvMTk5OS8wMi8yMi1yZGYtc3ludGF4LW5zIyIgeG1sbnM6c3ZnPSJodHRwOi8vd3d3LnczLm9yZy8yMDAwL3N2ZyIgeG1sbnM9Imh0dHA6Ly93d3cudzMub3JnLzIwMDAvc3ZnIiB4bWxuczpzb2RpcG9kaT0iaHR0cDovL3NvZGlwb2RpLnNvdXJjZWZvcmdlLm5ldC9EVEQvc29kaXBvZGktMC5kdGQiIHhtbG5zOmlua3NjYXBlPSJodHRwOi8vd3d3Lmlua3NjYXBlLm9yZy9uYW1lc3BhY2VzL2lua3NjYXBlIiB2ZXJzaW9uPSIxLjEiIGlkPSJzdmc4MjQ1OSIgaW5rc2NhcGU6dmVyc2lvbj0iMC45Mi4zICgyNDA1NTQ2LCAyMDE4LTAzLTExKSIgc29kaXBvZGk6ZG9jbmFtZT0ia2V5X3ZhdWx0LnN2ZyIgeD0iMHB4IiB5PSIwcHgiIHZpZXdCb3g9IjAgMCA4OS42OSAxMDAuMTEiIHN0eWxlPSJlbmFibGUtYmFja2dyb3VuZDpuZXcgMCAwIDg5LjY5IDEwMC4xMTsiIHhtbDpzcGFjZT0icHJlc2VydmUiPjxtZXRhZGF0YSBpZD0ibWV0YWRhdGEyMzQ4Ij48cmRmOlJERj48Y2M6V29yayByZGY6YWJvdXQ9IiI+PGRjOmZvcm1hdD5pbWFnZS9zdmcreG1sPC9kYzpmb3JtYXQ+PGRjOnR5cGUgcmRmOnJlc291cmNlPSJodHRwOi8vcHVybC5vcmcvZGMvZGNtaXR5cGUvU3RpbGxJbWFnZSIvPjxkYzp0aXRsZS8+PC9jYzpXb3JrPjwvcmRmOlJERj48L21ldGFkYXRhPjxkZWZzIGlkPSJkZWZzMjM0NiIvPiYjeGE7PGZpbHRlciBpZD0iZmlsdGVyXzIiPiYjeGE7CTxmZUdhdXNzaWFuQmx1ciBpZD0iZmVHYXVzc2lhbkJsdXI4MjQzMiIgc3RkRGV2aWF0aW9uPSIyIi8+JiN4YTs8L2ZpbHRlcj4mI3hhOzxzb2RpcG9kaTpuYW1lZHZpZXcgYm9yZGVyY29sb3I9IiM2NjY2NjYiIGJvcmRlcm9wYWNpdHk9IjEiIGZpdC1tYXJnaW4tYm90dG9tPSIwIiBmaXQtbWFyZ2luLWxlZnQ9IjAiIGZpdC1tYXJnaW4tcmlnaHQ9IjAiIGZpdC1tYXJnaW4tdG9wPSIwIiBncmlkdG9sZXJhbmNlPSIxMCIgZ3VpZGV0b2xlcmFuY2U9IjEwIiBpZD0ibmFtZWR2aWV3ODI0NjEiIGlua3NjYXBlOmN1cnJlbnQtbGF5ZXI9InN2ZzgyNDU5IiBpbmtzY2FwZTpjeD0iNzMuODY0NzI3IiBpbmtzY2FwZTpjeT0iNTIuMzM5MjAxIiBpbmtzY2FwZTpwYWdlb3BhY2l0eT0iMCIgaW5rc2NhcGU6cGFnZXNoYWRvdz0iMiIgaW5rc2NhcGU6d2luZG93LWhlaWdodD0iMTAxNyIgaW5rc2NhcGU6d2luZG93LW1heGltaXplZD0iMSIgaW5rc2NhcGU6d2luZG93LXdpZHRoPSIxOTIwIiBpbmtzY2FwZTp3aW5kb3cteD0iLTgiIGlua3NjYXBlOndpbmRvdy15PSItOCIgaW5rc2NhcGU6em9vbT0iMy42OTA2MTY0IiBvYmplY3R0b2xlcmFuY2U9IjEwIiBwYWdlY29sb3I9IiNmZmZmZmYiIHNob3dncmlkPSJmYWxzZSI+JiN4YTsJPC9zb2RpcG9kaTpuYW1lZHZpZXc+JiN4YTsmI3hhOzxwYXRoIGlkPSJwYXRoODI0NDUiIGlua3NjYXBlOmNvbm5lY3Rvci1jdXJ2YXR1cmU9IjAiIHN0eWxlPSJmaWxsOiM3RkJBMDA7IiBkPSJNODkuNjksNTUuMjZjMC0xNC42Mi03LTI3LjQzLTE3LjYxLTM1LjY0ICBjMCwwLjQsMCwxLDAsMS40YzAsNC40MS0xLjIxLDguNjEtMy4wMSwxMi4yMWM1LjIxLDUuODEsOC40MSwxMy40Miw4LjQxLDIxLjgzYzAsMTguMDItMTQuNjEsMzIuNjMtMzIuNjMsMzIuNjMgIFMxMi4yMSw3My4wOCwxMi4yMSw1NS4wNmMwLTkuMDEsMy42MS0xNy4wMiw5LjQxLTIzLjAzYy0xLjYtMy40LTIuNi03LjItMi42LTExLjIxYzAtMC44LDAtMS44LDAuMi0yLjZDNy42MSwyNi4yMywwLDM5Ljg0LDAsNTUuMDYgIGMwLDI1LjAyLDIwLjAyLDQ1LjA1LDQ0Ljg1LDQ1LjA1QzY5LjY3LDEwMC4xMSw4OS42OSw4MC4wOCw4OS42OSw1NS4yNnoiLz4mI3hhOyYjeGE7PHBhdGggaWQ9InBhdGg4MjQ1MyIgaW5rc2NhcGU6Y29ubmVjdG9yLWN1cnZhdHVyZT0iMCIgc3R5bGU9ImZpbGw6I0ZDRDExNjsiIGQ9Ik00NS40NSwwQzM0LjA0LDAsMjQuODMsOS4yMSwyNC44MywyMC42MiAgYzAsOS40MSw2LjIxLDE3LjIyLDE0LjgyLDE5LjgydjIwLjQzaC05LjYxdjEwLjQxaDkuNjF2Ny42MWgxMS40MVY0MC4yNGM4LjYxLTIuNCwxNC44MS0xMC40MSwxNC44MS0xOS44MiAgQzY2LjA3LDkuMjEsNTYuODYsMCw0NS40NSwweiBNNDUuNDUsMTAuODFjNS40MSwwLDkuODEsNC40MSw5LjgxLDkuODFjMCw1LjQxLTQuNCw5LjgxLTkuODEsOS44MWMtNS40LDAtOS44MS00LjQtOS44MS05LjgxICBDMzUuNjQsMTUuMjIsNDAuMDUsMTAuODEsNDUuNDUsMTAuODF6Ii8+JiN4YTs8L3N2Zz4=;" vertex="1" parent="1">
          <mxGeometry x="330" y="467.5" width="67.5" height="75" as="geometry" />
        </mxCell>
      </root>
    </mxGraphModel>
  </diagram>
</mxfile>
